<mxfile host="app.diagrams.net" modified="2020-07-22T04:02:49.017Z" agent="5.0 (Windows NT 10.0; Win64; x64) AppleWebKit/537.36 (KHTML, like Gecko) Chrome/84.0.4147.89 Safari/537.36" etag="Bo483J2rSlMuPwpnKJfx" version="13.4.9" type="github">
  <diagram id="AIjt9ARn3dffNuoBCVZW" name="Page-1">
    <mxGraphModel dx="782" dy="469" grid="1" gridSize="10" guides="1" tooltips="1" connect="1" arrows="1" fold="1" page="1" pageScale="1" pageWidth="850" pageHeight="1100" math="0" shadow="0">
      <root>
        <mxCell id="0" />
        <mxCell id="1" parent="0" />
        <mxCell id="czfyNqVmEKDJEXSuVN6o-1" value="" style="shape=image;imageAspect=0;aspect=fixed;verticalLabelPosition=bottom;verticalAlign=top;image=data:image/png,iVBORw0KGgoAAAANSUhEUgAAAOEAAADhCAMAAAAJbSJIAAAAilBMVEX///8BAQHz8/Pa2trm5uakpKSbm5v5+fnr6+vW1tb8/PzT09P29vZmZmbu7u5ZWVmTk5PBwcE7OzskJCRJSUmxsbHJyckiIiLf39/IyMh4eHgcHBwqKipfX19PT0+qqqqLi4u7u7uCgoIQEBA1NTVvb28+Pj6FhYWPj48uLi6goKAXFxdERERsbGx5L2nOAAAHHUlEQVR4nO2c6ZaqOhCFCaigiIpz085ze/T9X+9CBkCGRO1zV+I6+/tzsYnnZnegqlJVacsCAAAAAAAAAAAAAAAAAAAAAAAAAAAAAAAAAAAAAAAAAIB/ld582rxEu+NxF22uoePpns/fxQ43qxl54M842jZ0z+sv0Zn096Sa27Wne3a/x4lq1HH6X7pn+Dumfbk+upDbju5pvo0TqPUljEPdM32Pzvk5fQnBJ5pW/8/zAmMmuuf7MoOX9MXcbd1Tfgl7+apAQg5z3bN+gcbP6wJjPsdxzOs8vIqt7pk/Rcfy39T3MRLnrxnRz5PYW/xCICG+7vmrGf5KINkb7/sVgTbZB2P5gJurW4KciUJgP46yv+RDdro1SGmo/AT16op1NtotqjYTSzrKkQ+aGbybChUCCd8mKazRRa8KGd8KgQduRbaKccYmcJqqJWzxga7iV3HXKqOejjKYSX2dam/l6NRRz1olMFuauWJkpFGGBGU0QyMym1pKldE1MrKZqgQe6LAd1anw+ukbaxSqeI2lYjosZukc5GOHerVU0lO5in03GbYl3zQhc1WMNtDWqJ47cqbDbnwtbcVoAx/TnUohDUmTgO1Gxyse6oVWMZWoLCkLSenvgT6BiuCUGJdc7KmWkOYnbFpjY97uJh9v3A5DFXT/0JCUbx/z13UM9Oop01IoZJaDl6LWyXVXbnyXWuVUcFQopKVQ8e4x33+RfmGkVU4FJ7lAFpJuxEca18iD071ppkaxhFSSm24+mK2RFzcMK2N05AJZEJbZFpYzlFuntlZBJRQhCqsOTrM8VZP+QFrAMSw3LFco3qlGmis90T2U1AAbVvr2pArPYpibxmpsr/hBCuVrmHulRCLgSD/dP0dhVyawnx/Z5o6ePriyQpxh76ErU8hKZn2+KDYLbFiQIyliGGZLZf6Q5bAdYUAti7ahsJhFEpwa5g8tSVaCxdBJPBPxfD3VNU2u7Prg1LSWN4nNoFN1R8nlmLsNJ95FBfSqduM80yalhvowminZ8k++RdfRXfLcfW1w2pf8z7SwrZspt4lpC9+af2HAn9663r6NFhkSGnUCT8XbO/4yhgeefKvGvJ6FuhiTrdkm95O+eBlZxrCmqGpe1rsmd7ZnJvHxZw/J0Org9FuLCCk1T9uu8mb+EazOYW10aJDjVT9tbLlWMgGVCRDDYjZKZTlpRW9V5EaXWVNJVXA6MrGWv61SyB7HTcWdRVrK7lRkTjeaREhxK6zpnt7pVjeCba18EPeImZX8CqPInHrl6pIs6Vt+hQN9KmRU7BGZU6vNqQXsZbRHxRsm2pmEUmzKlqI23CFkSJ/GUmHOuJhUUEoprh3f9x1p3S02RdNSD4eB5VGOqm/vSQztxKCUPPtbmJbPz6Mqez6FyYdLOsoi2xMY6ilS3jhK8siPyc9oQnemFiHFXDsqULWsKTAs012JsvtLRlP97xuAslO4HuPaE2pQtkfVcdU986fx3zvaZbIjLNJ45+TMVPesX6L75CHnjHibYWLmQsKLUbjBJxBq8V5YxpP5fr6SUNFGJJitP+z5zOhMnjmM2DI9EpUTKg7j/TQNP433BPNLbX14sTM15fQqTjMoqVz0B/7nL18Od/61Ph+D1W08XgbnVjj/7JcPAAAA+MfwHvpeHL5J6HrZbsFt+76ffXYb3fTSi+nlAhu7UdxkeH7y5b854ZcZj3Mf5qLfuZmVqVs8ZyO6vfw03+TyoDxKw5tWoeXS4RX+1f8x8ydxHuq1jmhNyBROyCr0/elkJ1K97TQnas9G0zDcRuQmVq71WL/34p3VtB1/WWeK6rg45A7PJ6UnugqZwqhYK8spHLFDhrv0l1RQ2DSguc0m13Wu1dUhmz/07yZkCgfFHGFe4Q/97zrNshUUXg3ohI6VeLkDrQ6ZTGkXfqawtyDRg6UoKXSH32KZCwodEmhPb4yWlhXs049ObE8uiU3JWRr7GNuS3MRzChf7YLkMch3dBYXWlpDl/R5oTFOF5DSPjWNaL0oUWv34tWrmp+rcCTmm65hXSE7D4fBExmJwQaHdJ4fxajXWmAgIvsexvEXaHEIVerO923yc6jzKTG75PZym3qCgMNKe55+Ti3UnrXX6mFGF8YyX62LbVqaibEutozBWjwo7C+1/d+CSTKhFVmnCmimMbeCi1Jg2Fn+bpryGViA8SmEND7rbaLt7elY3JGQm+pp55BJkrXeTMAnL3DU/6FRU2I3J7rVI2+4lMBM6IFFy5dq6+vgm3MQ0DsIzC4Xuj1DYWRGyPw3jwEt4zXYatdmi5N/PvAWHD45f38VpuNd2Jngy4DG0PeB6vDO3J/OWcGRdZ72LovNX6ti8TWoaw8sg5upn9waMlgjOnWsURbu1Jsdf7YyfcdHa3TgAAAAAAAAAAAAAAAAAAAAAAAAAAAAAAAAAAAAAAAAAwGT+A1t4Vn3zqR+zAAAAAElFTkSuQmCC;" parent="1" vertex="1">
          <mxGeometry x="148.05" y="370" width="50" height="50" as="geometry" />
        </mxCell>
        <mxCell id="qi98abLlbHQPDHmzHjWW-2" value="" style="shape=image;imageAspect=0;aspect=fixed;verticalLabelPosition=bottom;verticalAlign=top;image=data:image/png,iVBORw0KGgoAAAANSUhEUgAAAOEAAADhCAMAAAAJbSJIAAAAilBMVEX///8BAQHz8/Pa2trm5uakpKSbm5v5+fnr6+vW1tb8/PzT09P29vZmZmbu7u5ZWVmTk5PBwcE7OzskJCRJSUmxsbHJyckiIiLf39/IyMh4eHgcHBwqKipfX19PT0+qqqqLi4u7u7uCgoIQEBA1NTVvb28+Pj6FhYWPj48uLi6goKAXFxdERERsbGx5L2nOAAAHHUlEQVR4nO2c6ZaqOhCFCaigiIpz085ze/T9X+9CBkCGRO1zV+I6+/tzsYnnZnegqlJVacsCAAAAAAAAAAAAAAAAAAAAAAAAAAAAAAAAAAAAAAAAAIB/ld582rxEu+NxF22uoePpns/fxQ43qxl54M842jZ0z+sv0Zn096Sa27Wne3a/x4lq1HH6X7pn+Dumfbk+upDbju5pvo0TqPUljEPdM32Pzvk5fQnBJ5pW/8/zAmMmuuf7MoOX9MXcbd1Tfgl7+apAQg5z3bN+gcbP6wJjPsdxzOs8vIqt7pk/Rcfy39T3MRLnrxnRz5PYW/xCICG+7vmrGf5KINkb7/sVgTbZB2P5gJurW4KciUJgP46yv+RDdro1SGmo/AT16op1NtotqjYTSzrKkQ+aGbybChUCCd8mKazRRa8KGd8KgQduRbaKccYmcJqqJWzxga7iV3HXKqOejjKYSX2dam/l6NRRz1olMFuauWJkpFGGBGU0QyMym1pKldE1MrKZqgQe6LAd1anw+ukbaxSqeI2lYjosZukc5GOHerVU0lO5in03GbYl3zQhc1WMNtDWqJ47cqbDbnwtbcVoAx/TnUohDUmTgO1Gxyse6oVWMZWoLCkLSenvgT6BiuCUGJdc7KmWkOYnbFpjY97uJh9v3A5DFXT/0JCUbx/z13UM9Oop01IoZJaDl6LWyXVXbnyXWuVUcFQopKVQ8e4x33+RfmGkVU4FJ7lAFpJuxEca18iD071ppkaxhFSSm24+mK2RFzcMK2N05AJZEJbZFpYzlFuntlZBJRQhCqsOTrM8VZP+QFrAMSw3LFco3qlGmis90T2U1AAbVvr2pArPYpibxmpsr/hBCuVrmHulRCLgSD/dP0dhVyawnx/Z5o6ePriyQpxh76ErU8hKZn2+KDYLbFiQIyliGGZLZf6Q5bAdYUAti7ahsJhFEpwa5g8tSVaCxdBJPBPxfD3VNU2u7Prg1LSWN4nNoFN1R8nlmLsNJ95FBfSqduM80yalhvowminZ8k++RdfRXfLcfW1w2pf8z7SwrZspt4lpC9+af2HAn9663r6NFhkSGnUCT8XbO/4yhgeefKvGvJ6FuhiTrdkm95O+eBlZxrCmqGpe1rsmd7ZnJvHxZw/J0Org9FuLCCk1T9uu8mb+EazOYW10aJDjVT9tbLlWMgGVCRDDYjZKZTlpRW9V5EaXWVNJVXA6MrGWv61SyB7HTcWdRVrK7lRkTjeaREhxK6zpnt7pVjeCba18EPeImZX8CqPInHrl6pIs6Vt+hQN9KmRU7BGZU6vNqQXsZbRHxRsm2pmEUmzKlqI23CFkSJ/GUmHOuJhUUEoprh3f9x1p3S02RdNSD4eB5VGOqm/vSQztxKCUPPtbmJbPz6Mqez6FyYdLOsoi2xMY6ilS3jhK8siPyc9oQnemFiHFXDsqULWsKTAs012JsvtLRlP97xuAslO4HuPaE2pQtkfVcdU986fx3zvaZbIjLNJ45+TMVPesX6L75CHnjHibYWLmQsKLUbjBJxBq8V5YxpP5fr6SUNFGJJitP+z5zOhMnjmM2DI9EpUTKg7j/TQNP433BPNLbX14sTM15fQqTjMoqVz0B/7nL18Od/61Ph+D1W08XgbnVjj/7JcPAAAA+MfwHvpeHL5J6HrZbsFt+76ffXYb3fTSi+nlAhu7UdxkeH7y5b854ZcZj3Mf5qLfuZmVqVs8ZyO6vfw03+TyoDxKw5tWoeXS4RX+1f8x8ydxHuq1jmhNyBROyCr0/elkJ1K97TQnas9G0zDcRuQmVq71WL/34p3VtB1/WWeK6rg45A7PJ6UnugqZwqhYK8spHLFDhrv0l1RQ2DSguc0m13Wu1dUhmz/07yZkCgfFHGFe4Q/97zrNshUUXg3ohI6VeLkDrQ6ZTGkXfqawtyDRg6UoKXSH32KZCwodEmhPb4yWlhXs049ObE8uiU3JWRr7GNuS3MRzChf7YLkMch3dBYXWlpDl/R5oTFOF5DSPjWNaL0oUWv34tWrmp+rcCTmm65hXSE7D4fBExmJwQaHdJ4fxajXWmAgIvsexvEXaHEIVerO923yc6jzKTG75PZym3qCgMNKe55+Ti3UnrXX6mFGF8YyX62LbVqaibEutozBWjwo7C+1/d+CSTKhFVmnCmimMbeCi1Jg2Fn+bpryGViA8SmEND7rbaLt7elY3JGQm+pp55BJkrXeTMAnL3DU/6FRU2I3J7rVI2+4lMBM6IFFy5dq6+vgm3MQ0DsIzC4Xuj1DYWRGyPw3jwEt4zXYatdmi5N/PvAWHD45f38VpuNd2Jngy4DG0PeB6vDO3J/OWcGRdZ72LovNX6ti8TWoaw8sg5upn9waMlgjOnWsURbu1Jsdf7YyfcdHa3TgAAAAAAAAAAAAAAAAAAAAAAAAAAAAAAAAAAAAAAAAAwGT+A1t4Vn3zqR+zAAAAAElFTkSuQmCC;" parent="1" vertex="1">
          <mxGeometry x="148.05" y="370" width="50" height="50" as="geometry" />
        </mxCell>
        <mxCell id="czfyNqVmEKDJEXSuVN6o-2" value="" style="aspect=fixed;pointerEvents=1;shadow=0;dashed=0;html=1;strokeColor=none;labelPosition=center;verticalLabelPosition=bottom;verticalAlign=top;align=center;fillColor=#00188D;shape=mxgraph.azure.computer" parent="1" vertex="1">
          <mxGeometry x="117.5" y="350" width="111.11" height="100" as="geometry" />
        </mxCell>
        <mxCell id="qi98abLlbHQPDHmzHjWW-3" value="" style="aspect=fixed;pointerEvents=1;shadow=0;dashed=0;html=1;strokeColor=none;labelPosition=center;verticalLabelPosition=bottom;verticalAlign=top;align=center;fillColor=#00188D;shape=mxgraph.azure.computer" parent="1" vertex="1">
          <mxGeometry x="117.5" y="350" width="111.11" height="100" as="geometry" />
        </mxCell>
        <mxCell id="czfyNqVmEKDJEXSuVN6o-3" style="edgeStyle=orthogonalEdgeStyle;rounded=0;orthogonalLoop=1;jettySize=auto;html=1;" parent="1" source="czfyNqVmEKDJEXSuVN6o-4" edge="1">
          <mxGeometry relative="1" as="geometry">
            <mxPoint x="390" y="180" as="targetPoint" />
            <Array as="points">
              <mxPoint x="250" y="250" />
              <mxPoint x="250" y="180" />
            </Array>
          </mxGeometry>
        </mxCell>
        <mxCell id="czfyNqVmEKDJEXSuVN6o-4" value="" style="shape=image;imageAspect=0;aspect=fixed;verticalLabelPosition=bottom;verticalAlign=top;image=data:image/png,iVBORw0KGgoAAAANSUhEUgAAAOEAAADhCAMAAAAJbSJIAAABTVBMVEX///8AAADw1rfTODMzUGEjHyBta21eXl4AHB735M2BsMRJcou/v7+7u7vVODM0U2XKysrY2NhwcHB5eXlRUVG2trbhOjX227v19fVXV1cbFhfo6OgAAAXwPTr5+fkiGxs/Y3j848ISCw0XHh/s7Oyjo6ODg4OSkZELHR8eHyDf398fFBALAAPS0tKhoaEPDw//7dWpMS2ULSv+QD0yMjI/Pz//89uPhXNPJCTqPDkEAA7DNTF3KScvLC1jJiW4My8uQ1AoMTkvLy/i0bKgnI5gXFXVwaV8cmNDPTe6rJSun4kAERaJLCorHyBWTESDeGhJIyNmJyUXAADYzbqzq5yWkYXl2sa6qpJLRDydkHxxZVgUFBzCuaiXjXnJtJqcLiw6ISKIhnp/cGAkExd1l6hOZnEnLDJjfYpqj58+S1QhJSs6PEKBq76PxNpOfZnd2FuEAAAVxUlEQVR4nO1d+V/a2NfmqBdSRRZZTZCYsIfFjWhFUSytWrXavda21plvx8440/7/P77nZicEBadT0veT5xcFknCfe/Zzb4LP58GDBw8ePHjw4MGDBw8ePHjw4MGDBw8efjbSUj0SqXPZcY/jPwGXiMk10MDGS8H0uEf0Q8GVmlATWcKyIoLFf0SAeGLcw/pRyCZkEHlCSAYOD357/+a3g/MatJAlQOn/hb6WRGCRHoH26wfrywrWH7x6fEpJ1tjguIf3r1FAdQSZJy3yen35gQlk+foQqUNx3CP8d4g00dwKnATwZtnKT8X6qzgQmB/3IP8FuHkAfyTPxeD0rc5vworU8kf0PfK4x3lvlFB+9Xy0RODxusIuNdGH1MSh+KtSzMsAqJ+NgFh7tdwnPRPC+QcxPu7B3gdSDeQoF/H7yaNB8tMptlkxMO7hjo58rRbnuETAHyf95mdDF91NadwDHhkyEpQKAb+/difBCeEjUoyMe8QjIgFEkmb9c3Otj8t3EcSo8bjFt8c95BHRhEi9RNpN9mLdJJhytMYHyx/fvD4k0Bj3mEdCFIhMSwgRXi8bBDHAP37ctXNMPZCh1cKkjh33oEdBAzALFWOJKFd7ojNMLb/FTDQD+3YRvoHDJnwgv5QlIkEWShwXnS20+XVNhMuvQMyIBDZsQkwdTQjCxEaGsHPjHvfQkJBgs56PFAMBvwzLmqjeQub8ckLot0OFsdBlWX7cAx8acyIrc1IRI4V/Tm5pDNebcCYMjvoTqW4GouMe+ZDIAqlJ0pyfYq7Z1qzwI1w4yM8C4QwK4x76kAiCWMzH/CpDcqrySv2WuZ3gxMQ+/CqG2KhBJBHQGIqaY0ltvL9FRRVjFKA57qEPiTkROFVHEfAuZfEnmrD6uabwMOEcxj30IRFgRUkToT8A3X42b4yQmNK5pg66E6nfIT/usQ+FfJtvR3SG8/3Wh0nagS7XDY1ravnxgZDa+DWcqcSypB3UlTR+bmdICw0wGJ4J2ptvYSL1/pfIaqJA+6KzOkO5L0TQLtuBRiz1TuWKGfn64ZlwBLFxD/9uIMHyM1LDsgkLJ2T495ndq1AZvoUjjbiaw6UeCMJT6L5ruT9ecMAzJ7tlSLRRkDKV4UFfKYEQPsFTNVd7onii/fcbF4eti8uM65unaZZlTtZ2GQJsC2qsGJ+bb9q0VDj49G5//6ylae8+HAoTqTMsn+Bw4jKTc3uVKLPl7bW1hxUCh49fP6b9JT/YRChAJkPLxiNVtsIFbCDXi+bFOyF1mdlGim7u8sdquYdrCysowtd0eWJdZknsw2Wvmqb2T1sARLfDiVSLKqwgYFKeuoQVKn/3BsUEVMjCwtpOBT4uL79+/WD5LYj+Zl85SAsMs8hAWqCV/SjDleQJw7q2PZwHwoSQYY59sr7MQgYu1+dZmX1yR8KNXofVyL7L7IaSO7maWxuL8yzzeW1hIcmgCB9fnqK5dY/Q4J7cmnArpphR3VHqqLUVmgyhFbsztUkANcKFzUkG3j54IMBRVzzrHmy8u6tmQoqHLSXzSX3KTCLDXZfqaVYkTJISDJWRYaoLqdRRW0il7pKgIjwiHtI/B8fJycnJ5IucK0vhUq28iiLEAebg1YOJrihgNXSH/Iw26j4aLV2h4SnDyRBDau5b+0Y3k1tYWAghw4eZx8sTArlbOy2t8BYNm0LrocpwtexCZ1MUmRWqozi+k/LhOqYuwzDUZXgJ1ON24SREGU4my6Tmtp0oaag8U3QUGW4x8OpOdkjrTDtKmHjfop0ADBYrKsPQ53LNbclbo0ZFmFQlcMXKy3czFE5p4pYSumcAT2jMT20cb6kMMWJU3NbiJ6S8oIoQh7fCZDbUAHebI00diE/3L9+fApxfYvIt7AuHFXWKqKbnYHbcnHoQgdzJ2oImgMnk8wqm01gjPYXfbuG4r+z+Imf7OBvCZbvbhR2D4STDumuDRkxkJnUR0vHlKq32xtEF0LjhgEvMS9Hu9p8+3e/SkClcnsIn4ai1qs/RZBKTW1cl4Gzlam1BFwClSMpEbLF0Zc3OTnGgcI5FYpcm4alU93KjDa1TQTg3zJBqernmpqgfgfKqKUI6wNA2U66wp+v9i7/4jjDRJVRBMyIrwuUnEEkLy+AuEMschcquUtOSiEVFctKKZGjlij13YpjaP8R68OgQWh9YlmSO3mdatAhOnR2fhCznP6y4KSQ2WbKwEJrsBU0vjeVfsy38YCJ1TgkJ3aOz0yZpHb27OOpSz5thtiyXwLzGRa3FNORerC3YCCpjfGUwPLOkOELlPa2A0cPQ0l5NzoWz44dWLcC8QXRP5oZmuGJTUm2Mv+lCFNrWtYounD9NqeT04qMLzG6PFiTLrHs2ERVqGCvsSqqExaZuiKmn1o4Uvspkzi823iM+nSkzcHr8Imk/Wxw3MQMYDTf7lHSSlrKmmgrn1lJKOIKW+KHVyqBHpYtuqSPosULKcDvnnogYZytrm/0MMWwfH5i+BqymmOq+vzhsN08PVC/ThcqOTc2pGdfHzUxHu/J8rc8MJ5XcC4waMLUP760FleJmBNUKhXO28tzOcIUBt+xzz4q57bV+M0RsPjN9DTW+I+eaUThrYeZus0N0VK7JatI07XYimNwtE9qVMo1vw4micAaEVEm5V0/dFC44mrM56ChmboSwT9atFJ/0FVTCfrPFk5kwUnyetIb8SUZ0y1qbBOXP/fE++bmcI3yVNvhNiu+g9c66pwYzmwsg/N73mZnFKsk9m7RSLItuWWqLIsNNO7/dKwY1L4zjhjfryymD0CEcHgkKSZrSXD5RbsToTM0oFCtlS8jA3Ns/bmoaqAxt0Xpyh6lUbxZV0bTaj98qCYxwdHFxdshmWgdHl/tY3l+0MsqNJpVKtaMeSiyJDTJ0iwztDEPJEybH82EcNGKqSngA8fz3jaMDOD4+ppTYFq2dMOBn2oTkmIcPy1VNihaKqKVusUMOcqsWhsndZ2VS7cxo+L7H0720/ngbRObk8w7D5JDiBY+kzy67F0vMSXJt7aS8RynOEJ4wmi1ST+OW9eAsRoukKcBtqqA6v5nFqfBelSgrLXU4WVtYW9jdYXLsaZfG+277+Cq0trC5mWRuwlOLOB3XpPw55LpokWVzeigLJVee5Uh16rvBDxGeuoFAMO0rZSYXKNaoFsPh72dnmdzqmtJFTl7xYTyQKqrBcNc9Ed8nV66S2qieMRWeLGr8wlMawh0WanNyeXNTnYaFJMrx+H//Y3bW1CZrcodVDpyZqeqGGFopu2e9O8CW1fWGFaZCqnua+Ax+KseKyDJGiYXKurO9tvmCWT3ZoqeGTnLacTyjN4VPcu5ZRiyKaumTvEKCqgtdnLIj3LlhNvXRh1ZeMCcLqIif1e5HaFVj2DFqDNoEcc0CVAJrfI0hP+PMT6FY3jQ7vitXDzeTq4bjXM0pIg/v6WZIL+aeGzAkdKYKw+1cVQmBA1BOWlzuCmroMbOVDFHgmSpDM1iEGNcEfARUlC5S6HOZ7wwSIQ6f2TXDZnIbg36gnbna/ryytRV6tqeaLauXia5ypcoehZA676R6C8O97QVDhC+g1IhyXBEyZaR6zHdUM8zpjf3QtoscjdKKUg1xp1IND1ZTNETd01wdy3kpyuWlelH8Mv3PHy9JWJkDo1tDvda4aVmAhridVMMFuf5+iyEqsQ4LD3apCSWJS8e4fKPybXr6258vr2nI1wOrktG4yAzpfracGhFzipqGnQmGrx+iY0lu7cBf09MvoZ6OwKyvcIMMp7/93VGUVG/su6vl7VMWLlY0b8pPDTREVNOtrdUrBr4iqa+1+bwv7/M1/qYM/xTDvUr6rFIbN6kecFo3ED2gUrDbiHV0IRKsLCovv0xTqTXVpKz0F31V7SgfV0xP6prCQkOc1dIaUqnaXU34pmMIlZA9leD09BeIp30JX/EP/P+Pm7CipNt6QrPjKk9KEdR9zUm5umgzxDDpfNffCIfJH99Uht/+hkgB6rGv+H9tSvWku0ZtyLru5u4mr2QjODYa9O0MDcsM7738Z3paF+JcftYX+Dr97a+OEiuIvkRKO/quqSt0JDQhJh9Wbr73uprwzZT5RrX6VZMhtUTUxMMv019eKjNiKCmdJhfeH9TWhPi5XLU50/B12JQhT6r8nxrFP6GU99X++VbVJkJTUrrF1H0ipJaoJKcYqqkh9jDcC1soX1f5l21NjlWWy8O3P65VpeYxpmK4TE6uuNAKKdCd0piYJDQi9jJctDAMd655HnWVMvwKhWDnn5pWOGG4T4ZWdhiGIey8axbWLJCAlCnDF5XObQxp34ZyfPnHl2/TL5ulr6Sj+SNmcmu7zFR4egc4K7qRYgloRwrzLfLd4kzDfQw1OVJl/ZsVmzQUhsPhPf7qBZMjLJCEL1sC0U17TQzILLOaxHTE6mo6e2GrHYZ1TO0Rgk6HoE53Op29vRv8t8IC+FUXUwCQxszGCRzQlrXiakyZVW+myNT3RUpK5XJ9fYO8eHr/lwKe/q+8gvis0ZmRay7L2lTMoilOhspWhuEOjv8a1ZJQ/yKKxvPaQHm2mcKQ0Gd+saStLGqngwW6U6gA7tmnYEURKiT5jA+brqajyKmqMGPluWIpEQxG6vV6JJhoFOMs4fc6HZ6dk6R5SKAAo3FtaZsDd1VPBvy1yvPnvOFMMcBfX1/zRJ5rBB3sikvA4veZ7zxdRquDP+1rmE+pabpmXcaGuFip0AJKYzjzHbFYdT42HY0AXazYU+6vIM28D8WW18JETHRTF8OKuEhoJ0PX0sVF5ADOe/DS0TplONPhqc3FqPdMsGwzXqTidqk3pYjXCLFViAPGmo5KEF5cnOrwdG9Qotfw6uCazSZ98LN8b/0UHuA0KEOlPcPTvUFRxdXoyEqs67brG4hA1cYw49zbTUc5VknZeHoXUB4wTBRkwjfn8J88J7vy1iAF9T6GN87RGxm2VYZKUwZKhrlmfRIydGEFpSIKGPJ7GO4576NEhk2VobLjGYoSBcdx+XwexetaT4NFBjLs8TQd51UkZCjT9Yow4dvZqFQLcNEo5RhFSEFwa7Sg6UgfQ+cneiDDuMqQiFI0z8oSTXUKhUQ9ip+4+BF1/QwHhAtkGFCa+TcEopEifewurQ0DpYSULwJwP3vgQyMLpNqZ6mm3OTsN1MyYUh1eE3p3QjMeiIvNICfVg41mzdX35dNqiN8LW6pg0XG4yLD4gRaLe4SXZ5VsTTYqD/fqqI9mJyItijoGx3DFcYcaMmyIHSx+eWLEvkiiFIsVCxHXLOE7gyuxWO/xROcY3nNuf0alBLAiZnliwOWMHBCUKUes/sLKopJz7h2VZkGOFWo112agt0LhiILc69Bw4bgpnUY9ScqzLi1270YkrjymnPZhnLPoqBQBJfS5627KUSCV2hjg6EPmHV2NFKUMpZK7Hedd4BKlYnGedewrSVgC16m7cc/9P/dFxDlDwTwUIpTmr/NIyEHIOhfslGFQikrEvWXE0JivOXXO8ljkz0pYYbi3YTE0CuBUQNE2RgIZBn5tV6OAc+ycZaMcFDhOcnOlNDScuy5Rrh2IYWbg3obF8Cg5/sQDRnuRrmW4chVmRETBKTXlOD9L/AX31rqjQHRIzdKS5CzbXxLFvsQljZGQmwVXbkq4D6Ig1uKNiLE8n+c4LhosxVn3ttRGRVP9iSdoBuaKxWIsFpBZuiXB/U+7HBpYL9JlX1b9SSul4BCRsUtXCe+HfKSAkiNK07DGtuVArJRw46YSDx48ePAwXmSj9WAiUSgV5/yB5sCt6lJRlou/aDYeBQsG1YSF2z92N7hA806Gdf3z/747FfTP2eD/ARlIXr6D4bz++X+fzxWgDz/COLg7GC7pn//3j9rNJ4ptKz1/4ccsoMi3MzRk/HMa4RH48TMauJ2hoTo/abmmoX/fj+vZ3sHQF1c//ll14+yPn9G7GNLf9oSft+VrHAzRG/3EsnE8DH8mPIb3wK/CMJ2Yk1lYehQvWkeaTXNSlG5OU3dS1kvxR5VmoNCzl6SXYdSCvPUKjUjfNRXrjDpdUxlQDD9oy/5GlH7H0M/rG8BQ0oepQF85ilvew/FFHxmvrLGmh2HWep2Cz3rZuZ6jtWtKTcvRFuT91gsVR9AQZ4YllVg+q6XJS2qWLFu+JNKb9VmG0yvDonlSQOrhE3NgOOiaQe2duhQpOYx3ZIaqrBTJSdrHKsW0OYJoEXpgprR2O0wrr2T1C9IJIy/VMu+sec16qfeaRvWhEmQ1xZ2jL4bOUJwYqtk/a2ULS/bjUZsaUlqK6a/NFMXOkKbiFTPlTdsYGgJSrlnCaxpzF+g9xdizQw8YOmNwYKhNpGZ8elqnX95I1ufVGTUoDmKYbds2IupXNKsnQ5HjWYOBgmzPiExSfhh+82Y/Q7360WZdn2D9Ofi6t9GXlPL6BYymRS/DLLqjXr+X6GMYsF0zbbtmvFekiBF2b/Yz1J2WZlj2klxnaIy60jsjNobpNsg2vz+YoXEJ3UnP9n6FyaowfP3cx9CYP21cuqvRTVtnaIxGf8Nw31aGeRYq9q8cguF873calrHU0OY9O3wt28dQ/37wpdN5hCHD0gCG+micGHKWYY7CUH8j0fuSolkcsU7vY2gLAibuwVCTv62QGJ2hMesaiqOUJn0M52EAiqMyjOi9RVv7YHSGZm/HNt2DkE4US/rF+hgannvAycMzNOKIbTz3YNjTh3WatV6ovZlH+f+aoQU9rdF7MHSgeEsfS493TWeGxvgG6PrwDJtp41qP/i1DX9bUCPvBfYj1HGIw1AdoeJoB5ckonsYsLKybou7FkNpWr4sY3MkyrLZh/TpDkRI9H/87hpZmpWW+RmZYamsfZIMWSfbFWWMqjEOU0/UkUc+szSzMZst6YjISQ1NhLOMZnaF115FZmwz6ARBTcxRD8w/8ut4HOUm6oY7G0Gevle7H0Gp0ae2Sg58rqRfRqhbqAzDLO8NtWe+DoZLN3oehqafGCSMzRD1bsuS2DfvpdpSsB+jfZvUEhmaZdxjQ5ESzpBEZquWqgnszpCWyZf9fwnZwH9IWSrpR9tqcERIrs4quc9S/6tFEz4KNYk3XiZL9DVVJTKvQJ0wv5E3TlHvOsLxRMimZFFVvf9uGwIQxoZJWltjrG0vHqRmPty0Sypp9Bo2yUaCD1h0zVkI0CZhJZUCxbFNv45ql28+wXLNBp1iNaBVNidR4vnTrDw1RqS+VEg2dSP8OXvM7tSngbINVKfV236gqBHuPmLcKhKLU7j0gaD+jYM+Mmwph5RrxQr0e1CR4x71wknVgc07LomlrT0jWVd62ptowNVLFkn0OFGdlzbjsmUnCfkapd0aAahtK3SdZz5SHaCVKDX9zCSrxYnDgZEQLxcB8PFAc/+a7dFB9InrJH5dlHNAvuo3DgwcPHjx48ODBgwcPHjx48ODBgwcPHjx48ODBgwd34P8ApB3KyCHXoBkAAAAASUVORK5CYII=;" parent="1" vertex="1">
          <mxGeometry x="133.05" y="220" width="80" height="80" as="geometry" />
        </mxCell>
        <mxCell id="qi98abLlbHQPDHmzHjWW-4" value="" style="shape=image;imageAspect=0;aspect=fixed;verticalLabelPosition=bottom;verticalAlign=top;image=data:image/png,iVBORw0KGgoAAAANSUhEUgAAAOEAAADhCAMAAAAJbSJIAAABTVBMVEX///8AAADw1rfTODMzUGEjHyBta21eXl4AHB735M2BsMRJcou/v7+7u7vVODM0U2XKysrY2NhwcHB5eXlRUVG2trbhOjX227v19fVXV1cbFhfo6OgAAAXwPTr5+fkiGxs/Y3j848ISCw0XHh/s7Oyjo6ODg4OSkZELHR8eHyDf398fFBALAAPS0tKhoaEPDw//7dWpMS2ULSv+QD0yMjI/Pz//89uPhXNPJCTqPDkEAA7DNTF3KScvLC1jJiW4My8uQ1AoMTkvLy/i0bKgnI5gXFXVwaV8cmNDPTe6rJSun4kAERaJLCorHyBWTESDeGhJIyNmJyUXAADYzbqzq5yWkYXl2sa6qpJLRDydkHxxZVgUFBzCuaiXjXnJtJqcLiw6ISKIhnp/cGAkExd1l6hOZnEnLDJjfYpqj58+S1QhJSs6PEKBq76PxNpOfZnd2FuEAAAVxUlEQVR4nO1d+V/a2NfmqBdSRRZZTZCYsIfFjWhFUSytWrXavda21plvx8440/7/P77nZicEBadT0veT5xcFknCfe/Zzb4LP58GDBw8ePHjw4MGDBw8ePHjw4MGDBw8efjbSUj0SqXPZcY/jPwGXiMk10MDGS8H0uEf0Q8GVmlATWcKyIoLFf0SAeGLcw/pRyCZkEHlCSAYOD357/+a3g/MatJAlQOn/hb6WRGCRHoH26wfrywrWH7x6fEpJ1tjguIf3r1FAdQSZJy3yen35gQlk+foQqUNx3CP8d4g00dwKnATwZtnKT8X6qzgQmB/3IP8FuHkAfyTPxeD0rc5vworU8kf0PfK4x3lvlFB+9Xy0RODxusIuNdGH1MSh+KtSzMsAqJ+NgFh7tdwnPRPC+QcxPu7B3gdSDeQoF/H7yaNB8tMptlkxMO7hjo58rRbnuETAHyf95mdDF91NadwDHhkyEpQKAb+/difBCeEjUoyMe8QjIgFEkmb9c3Otj8t3EcSo8bjFt8c95BHRhEi9RNpN9mLdJJhytMYHyx/fvD4k0Bj3mEdCFIhMSwgRXi8bBDHAP37ctXNMPZCh1cKkjh33oEdBAzALFWOJKFd7ojNMLb/FTDQD+3YRvoHDJnwgv5QlIkEWShwXnS20+XVNhMuvQMyIBDZsQkwdTQjCxEaGsHPjHvfQkJBgs56PFAMBvwzLmqjeQub8ckLot0OFsdBlWX7cAx8acyIrc1IRI4V/Tm5pDNebcCYMjvoTqW4GouMe+ZDIAqlJ0pyfYq7Z1qzwI1w4yM8C4QwK4x76kAiCWMzH/CpDcqrySv2WuZ3gxMQ+/CqG2KhBJBHQGIqaY0ltvL9FRRVjFKA57qEPiTkROFVHEfAuZfEnmrD6uabwMOEcxj30IRFgRUkToT8A3X42b4yQmNK5pg66E6nfIT/usQ+FfJtvR3SG8/3Wh0nagS7XDY1ravnxgZDa+DWcqcSypB3UlTR+bmdICw0wGJ4J2ptvYSL1/pfIaqJA+6KzOkO5L0TQLtuBRiz1TuWKGfn64ZlwBLFxD/9uIMHyM1LDsgkLJ2T495ndq1AZvoUjjbiaw6UeCMJT6L5ruT9ecMAzJ7tlSLRRkDKV4UFfKYEQPsFTNVd7onii/fcbF4eti8uM65unaZZlTtZ2GQJsC2qsGJ+bb9q0VDj49G5//6ylae8+HAoTqTMsn+Bw4jKTc3uVKLPl7bW1hxUCh49fP6b9JT/YRChAJkPLxiNVtsIFbCDXi+bFOyF1mdlGim7u8sdquYdrCysowtd0eWJdZknsw2Wvmqb2T1sARLfDiVSLKqwgYFKeuoQVKn/3BsUEVMjCwtpOBT4uL79+/WD5LYj+Zl85SAsMs8hAWqCV/SjDleQJw7q2PZwHwoSQYY59sr7MQgYu1+dZmX1yR8KNXofVyL7L7IaSO7maWxuL8yzzeW1hIcmgCB9fnqK5dY/Q4J7cmnArpphR3VHqqLUVmgyhFbsztUkANcKFzUkG3j54IMBRVzzrHmy8u6tmQoqHLSXzSX3KTCLDXZfqaVYkTJISDJWRYaoLqdRRW0il7pKgIjwiHtI/B8fJycnJ5IucK0vhUq28iiLEAebg1YOJrihgNXSH/Iw26j4aLV2h4SnDyRBDau5b+0Y3k1tYWAghw4eZx8sTArlbOy2t8BYNm0LrocpwtexCZ1MUmRWqozi+k/LhOqYuwzDUZXgJ1ON24SREGU4my6Tmtp0oaag8U3QUGW4x8OpOdkjrTDtKmHjfop0ADBYrKsPQ53LNbclbo0ZFmFQlcMXKy3czFE5p4pYSumcAT2jMT20cb6kMMWJU3NbiJ6S8oIoQh7fCZDbUAHebI00diE/3L9+fApxfYvIt7AuHFXWKqKbnYHbcnHoQgdzJ2oImgMnk8wqm01gjPYXfbuG4r+z+Imf7OBvCZbvbhR2D4STDumuDRkxkJnUR0vHlKq32xtEF0LjhgEvMS9Hu9p8+3e/SkClcnsIn4ai1qs/RZBKTW1cl4Gzlam1BFwClSMpEbLF0Zc3OTnGgcI5FYpcm4alU93KjDa1TQTg3zJBqernmpqgfgfKqKUI6wNA2U66wp+v9i7/4jjDRJVRBMyIrwuUnEEkLy+AuEMschcquUtOSiEVFctKKZGjlij13YpjaP8R68OgQWh9YlmSO3mdatAhOnR2fhCznP6y4KSQ2WbKwEJrsBU0vjeVfsy38YCJ1TgkJ3aOz0yZpHb27OOpSz5thtiyXwLzGRa3FNORerC3YCCpjfGUwPLOkOELlPa2A0cPQ0l5NzoWz44dWLcC8QXRP5oZmuGJTUm2Mv+lCFNrWtYounD9NqeT04qMLzG6PFiTLrHs2ERVqGCvsSqqExaZuiKmn1o4Uvspkzi823iM+nSkzcHr8Imk/Wxw3MQMYDTf7lHSSlrKmmgrn1lJKOIKW+KHVyqBHpYtuqSPosULKcDvnnogYZytrm/0MMWwfH5i+BqymmOq+vzhsN08PVC/ThcqOTc2pGdfHzUxHu/J8rc8MJ5XcC4waMLUP760FleJmBNUKhXO28tzOcIUBt+xzz4q57bV+M0RsPjN9DTW+I+eaUThrYeZus0N0VK7JatI07XYimNwtE9qVMo1vw4micAaEVEm5V0/dFC44mrM56ChmboSwT9atFJ/0FVTCfrPFk5kwUnyetIb8SUZ0y1qbBOXP/fE++bmcI3yVNvhNiu+g9c66pwYzmwsg/N73mZnFKsk9m7RSLItuWWqLIsNNO7/dKwY1L4zjhjfryymD0CEcHgkKSZrSXD5RbsToTM0oFCtlS8jA3Ns/bmoaqAxt0Xpyh6lUbxZV0bTaj98qCYxwdHFxdshmWgdHl/tY3l+0MsqNJpVKtaMeSiyJDTJ0iwztDEPJEybH82EcNGKqSngA8fz3jaMDOD4+ppTYFq2dMOBn2oTkmIcPy1VNihaKqKVusUMOcqsWhsndZ2VS7cxo+L7H0720/ngbRObk8w7D5JDiBY+kzy67F0vMSXJt7aS8RynOEJ4wmi1ST+OW9eAsRoukKcBtqqA6v5nFqfBelSgrLXU4WVtYW9jdYXLsaZfG+277+Cq0trC5mWRuwlOLOB3XpPw55LpokWVzeigLJVee5Uh16rvBDxGeuoFAMO0rZSYXKNaoFsPh72dnmdzqmtJFTl7xYTyQKqrBcNc9Ed8nV66S2qieMRWeLGr8wlMawh0WanNyeXNTnYaFJMrx+H//Y3bW1CZrcodVDpyZqeqGGFopu2e9O8CW1fWGFaZCqnua+Ax+KseKyDJGiYXKurO9tvmCWT3ZoqeGTnLacTyjN4VPcu5ZRiyKaumTvEKCqgtdnLIj3LlhNvXRh1ZeMCcLqIif1e5HaFVj2DFqDNoEcc0CVAJrfI0hP+PMT6FY3jQ7vitXDzeTq4bjXM0pIg/v6WZIL+aeGzAkdKYKw+1cVQmBA1BOWlzuCmroMbOVDFHgmSpDM1iEGNcEfARUlC5S6HOZ7wwSIQ6f2TXDZnIbg36gnbna/ryytRV6tqeaLauXia5ypcoehZA676R6C8O97QVDhC+g1IhyXBEyZaR6zHdUM8zpjf3QtoscjdKKUg1xp1IND1ZTNETd01wdy3kpyuWlelH8Mv3PHy9JWJkDo1tDvda4aVmAhridVMMFuf5+iyEqsQ4LD3apCSWJS8e4fKPybXr6258vr2nI1wOrktG4yAzpfracGhFzipqGnQmGrx+iY0lu7cBf09MvoZ6OwKyvcIMMp7/93VGUVG/su6vl7VMWLlY0b8pPDTREVNOtrdUrBr4iqa+1+bwv7/M1/qYM/xTDvUr6rFIbN6kecFo3ED2gUrDbiHV0IRKsLCovv0xTqTXVpKz0F31V7SgfV0xP6prCQkOc1dIaUqnaXU34pmMIlZA9leD09BeIp30JX/EP/P+Pm7CipNt6QrPjKk9KEdR9zUm5umgzxDDpfNffCIfJH99Uht/+hkgB6rGv+H9tSvWku0ZtyLru5u4mr2QjODYa9O0MDcsM7738Z3paF+JcftYX+Dr97a+OEiuIvkRKO/quqSt0JDQhJh9Wbr73uprwzZT5RrX6VZMhtUTUxMMv019eKjNiKCmdJhfeH9TWhPi5XLU50/B12JQhT6r8nxrFP6GU99X++VbVJkJTUrrF1H0ipJaoJKcYqqkh9jDcC1soX1f5l21NjlWWy8O3P65VpeYxpmK4TE6uuNAKKdCd0piYJDQi9jJctDAMd655HnWVMvwKhWDnn5pWOGG4T4ZWdhiGIey8axbWLJCAlCnDF5XObQxp34ZyfPnHl2/TL5ulr6Sj+SNmcmu7zFR4egc4K7qRYgloRwrzLfLd4kzDfQw1OVJl/ZsVmzQUhsPhPf7qBZMjLJCEL1sC0U17TQzILLOaxHTE6mo6e2GrHYZ1TO0Rgk6HoE53Op29vRv8t8IC+FUXUwCQxszGCRzQlrXiakyZVW+myNT3RUpK5XJ9fYO8eHr/lwKe/q+8gvis0ZmRay7L2lTMoilOhspWhuEOjv8a1ZJQ/yKKxvPaQHm2mcKQ0Gd+saStLGqngwW6U6gA7tmnYEURKiT5jA+brqajyKmqMGPluWIpEQxG6vV6JJhoFOMs4fc6HZ6dk6R5SKAAo3FtaZsDd1VPBvy1yvPnvOFMMcBfX1/zRJ5rBB3sikvA4veZ7zxdRquDP+1rmE+pabpmXcaGuFip0AJKYzjzHbFYdT42HY0AXazYU+6vIM28D8WW18JETHRTF8OKuEhoJ0PX0sVF5ADOe/DS0TplONPhqc3FqPdMsGwzXqTidqk3pYjXCLFViAPGmo5KEF5cnOrwdG9Qotfw6uCazSZ98LN8b/0UHuA0KEOlPcPTvUFRxdXoyEqs67brG4hA1cYw49zbTUc5VknZeHoXUB4wTBRkwjfn8J88J7vy1iAF9T6GN87RGxm2VYZKUwZKhrlmfRIydGEFpSIKGPJ7GO4576NEhk2VobLjGYoSBcdx+XwexetaT4NFBjLs8TQd51UkZCjT9Yow4dvZqFQLcNEo5RhFSEFwa7Sg6UgfQ+cneiDDuMqQiFI0z8oSTXUKhUQ9ip+4+BF1/QwHhAtkGFCa+TcEopEifewurQ0DpYSULwJwP3vgQyMLpNqZ6mm3OTsN1MyYUh1eE3p3QjMeiIvNICfVg41mzdX35dNqiN8LW6pg0XG4yLD4gRaLe4SXZ5VsTTYqD/fqqI9mJyItijoGx3DFcYcaMmyIHSx+eWLEvkiiFIsVCxHXLOE7gyuxWO/xROcY3nNuf0alBLAiZnliwOWMHBCUKUes/sLKopJz7h2VZkGOFWo112agt0LhiILc69Bw4bgpnUY9ScqzLi1270YkrjymnPZhnLPoqBQBJfS5627KUSCV2hjg6EPmHV2NFKUMpZK7Hedd4BKlYnGedewrSVgC16m7cc/9P/dFxDlDwTwUIpTmr/NIyEHIOhfslGFQikrEvWXE0JivOXXO8ljkz0pYYbi3YTE0CuBUQNE2RgIZBn5tV6OAc+ycZaMcFDhOcnOlNDScuy5Rrh2IYWbg3obF8Cg5/sQDRnuRrmW4chVmRETBKTXlOD9L/AX31rqjQHRIzdKS5CzbXxLFvsQljZGQmwVXbkq4D6Ig1uKNiLE8n+c4LhosxVn3ttRGRVP9iSdoBuaKxWIsFpBZuiXB/U+7HBpYL9JlX1b9SSul4BCRsUtXCe+HfKSAkiNK07DGtuVArJRw46YSDx48ePAwXmSj9WAiUSgV5/yB5sCt6lJRlou/aDYeBQsG1YSF2z92N7hA806Gdf3z/747FfTP2eD/ARlIXr6D4bz++X+fzxWgDz/COLg7GC7pn//3j9rNJ4ptKz1/4ccsoMi3MzRk/HMa4RH48TMauJ2hoTo/abmmoX/fj+vZ3sHQF1c//ll14+yPn9G7GNLf9oSft+VrHAzRG/3EsnE8DH8mPIb3wK/CMJ2Yk1lYehQvWkeaTXNSlG5OU3dS1kvxR5VmoNCzl6SXYdSCvPUKjUjfNRXrjDpdUxlQDD9oy/5GlH7H0M/rG8BQ0oepQF85ilvew/FFHxmvrLGmh2HWep2Cz3rZuZ6jtWtKTcvRFuT91gsVR9AQZ4YllVg+q6XJS2qWLFu+JNKb9VmG0yvDonlSQOrhE3NgOOiaQe2duhQpOYx3ZIaqrBTJSdrHKsW0OYJoEXpgprR2O0wrr2T1C9IJIy/VMu+sec16qfeaRvWhEmQ1xZ2jL4bOUJwYqtk/a2ULS/bjUZsaUlqK6a/NFMXOkKbiFTPlTdsYGgJSrlnCaxpzF+g9xdizQw8YOmNwYKhNpGZ8elqnX95I1ufVGTUoDmKYbds2IupXNKsnQ5HjWYOBgmzPiExSfhh+82Y/Q7360WZdn2D9Ofi6t9GXlPL6BYymRS/DLLqjXr+X6GMYsF0zbbtmvFekiBF2b/Yz1J2WZlj2klxnaIy60jsjNobpNsg2vz+YoXEJ3UnP9n6FyaowfP3cx9CYP21cuqvRTVtnaIxGf8Nw31aGeRYq9q8cguF873calrHU0OY9O3wt28dQ/37wpdN5hCHD0gCG+micGHKWYY7CUH8j0fuSolkcsU7vY2gLAibuwVCTv62QGJ2hMesaiqOUJn0M52EAiqMyjOi9RVv7YHSGZm/HNt2DkE4US/rF+hgannvAycMzNOKIbTz3YNjTh3WatV6ovZlH+f+aoQU9rdF7MHSgeEsfS493TWeGxvgG6PrwDJtp41qP/i1DX9bUCPvBfYj1HGIw1AdoeJoB5ckonsYsLKybou7FkNpWr4sY3MkyrLZh/TpDkRI9H/87hpZmpWW+RmZYamsfZIMWSfbFWWMqjEOU0/UkUc+szSzMZst6YjISQ1NhLOMZnaF115FZmwz6ARBTcxRD8w/8ut4HOUm6oY7G0Gevle7H0Gp0ae2Sg58rqRfRqhbqAzDLO8NtWe+DoZLN3oehqafGCSMzRD1bsuS2DfvpdpSsB+jfZvUEhmaZdxjQ5ESzpBEZquWqgnszpCWyZf9fwnZwH9IWSrpR9tqcERIrs4quc9S/6tFEz4KNYk3XiZL9DVVJTKvQJ0wv5E3TlHvOsLxRMimZFFVvf9uGwIQxoZJWltjrG0vHqRmPty0Sypp9Bo2yUaCD1h0zVkI0CZhJZUCxbFNv45ql28+wXLNBp1iNaBVNidR4vnTrDw1RqS+VEg2dSP8OXvM7tSngbINVKfV236gqBHuPmLcKhKLU7j0gaD+jYM+Mmwph5RrxQr0e1CR4x71wknVgc07LomlrT0jWVd62ptowNVLFkn0OFGdlzbjsmUnCfkapd0aAahtK3SdZz5SHaCVKDX9zCSrxYnDgZEQLxcB8PFAc/+a7dFB9InrJH5dlHNAvuo3DgwcPHjx48ODBgwcPHjx48ODBgwcPHjx48ODBgwd34P8ApB3KyCHXoBkAAAAASUVORK5CYII=;" parent="1" vertex="1">
          <mxGeometry x="133.05" y="220" width="80" height="80" as="geometry" />
        </mxCell>
        <mxCell id="czfyNqVmEKDJEXSuVN6o-5" value="" style="edgeStyle=orthogonalEdgeStyle;rounded=0;orthogonalLoop=1;jettySize=auto;html=1;" parent="1" source="czfyNqVmEKDJEXSuVN6o-6" target="czfyNqVmEKDJEXSuVN6o-10" edge="1">
          <mxGeometry relative="1" as="geometry" />
        </mxCell>
        <mxCell id="qi98abLlbHQPDHmzHjWW-10" value="" style="edgeStyle=orthogonalEdgeStyle;rounded=0;orthogonalLoop=1;jettySize=auto;html=1;" parent="1" source="qi98abLlbHQPDHmzHjWW-5" target="qi98abLlbHQPDHmzHjWW-9" edge="1">
          <mxGeometry relative="1" as="geometry" />
        </mxCell>
        <mxCell id="czfyNqVmEKDJEXSuVN6o-6" value="" style="shape=image;imageAspect=0;aspect=fixed;verticalLabelPosition=bottom;verticalAlign=top;image=data:image/png,iVBORw0KGgoAAAANSUhEUgAAAOEAAADhCAMAAAAJbSJIAAAAkFBMVEX///8fUIEbToAVS377/P0ARHr2+Prh5+0YTX+mtMYzYY5JbpZXep8TSn0MSHzm6/AkVYU/ZY/x9PjD0N3a4uq4yNh3ka5lhqjT2+QqXIxhfZ8APXaSp78AQXizvcxsial9mrabsceJnrdmf59xkK9QdZu+yth4jamvwdI8apU3XoqhsMODlrBad5qVrMTK1uHGjOZHAAAOeUlEQVR4nO2diZaiOhCGJQQIIKuIYMMgtDhg2/L+b3ezgKIi2C4jfU++M3OO2oD5TahKVRYmEw6Hw+FwOBwOh8PhcDgcDofD4XA4HA6Hw+FwOBzO78ENglmKWS/arMlHsyBw3128u4GwmkfrvDQ/YkmSTIwhtjHIR/gv8YdZ5utoXkH47iLfiuy6gbrKbazMNBEShkEIa40/7HylBq4rv1tAL7LlzVdTG2tD4AZppwCEddrT1dyzRqpS9mbRFMSm+HNxLZmiGYNpNPPGJ1LZRFNkdjZKAI63XUN9Y4LOXwNfZxptlHdLOkFRF2GXPKxMikMtXyZZlql/jqj4fbLMtRC3aEPsEhku1PFohF9L27ioDYTbW55E6qwKPMVyXbdtLCF+byleUM3UKMmF+PLnAYa9/BqJfVV827i4nSQTNzTPsuShQkLZsjzcxE3p4gY2bH8U1Wh9XhTNlJbFz+w+9jHFUjIvWvmn9bJy30523sBMYXVfuayVcK4RZU8u7R0o3+eGwr//d7f880r8fn87tZanCsP0EfMA0/BU4fL9zfRMIfp8zFfLn2jsCpMHr5eMXqFTPXS5yhm7QgHkm/tvRLjJTz3PGBQq5wqRs7u3Gqudg84Vvt+WTv6ed2gQcJLi57G7WyQOOPetxt8XlPin7C56IgAh21mmwe2tFQbp0rHRZVRp7l5Y8lv5e6GQViQCAEftRTB4flCschuA7nSAOYY6zK5EvIBF7R+Cnqz2m3nlyid4881+lejCB8sIXLkIGkMd7u3uwh0g4S9JORGEsiwF+iomYXBXaHiCvX+3PEw6pPC0Um5KTo1LYbF9JDEzQFi8Wx5m/kKFQJu/Wx4m0H/U7n6m0Jm9Wx5GeaFCpHvvlodx8yGD+NsVTpavUygu3y2OkvzvFWbXOiSPA1bvFkeJXqYQCCNItWGKH3VqfoSdvlscZRO+rJXaY+jSTCbeyzo1YPtY0udZyM6tChGJMXBMcWsXAWxHkMMgOLeV2IzzTJ0FMzXL486o+fIXcd4trWZxi0JD9AOXjkRB2Q188Ty706lQf7e0Gn/Y5YN4epK2gcE0Hm7bD6eXn0U6WIfIVs/TUlC1B08Tx+EOsbsYmpzQHebNtaFaROo/19KNcjnEfSpw2+3WhrIDQBxDdEgxByoja8ajoBIEgdI0WDnrPw0YI3EWk0l/cwN5U9Dqa1Fq5eKr8eNK3n+i+S5BFyz6TX99N8lqKYkIIFEq1bpS1d7zkPY+SWes+hw4cmo50cF4IjtiH8m9nQVx+j5JZxRSTzmNVX1QeFSDmizhqq/2zdW7BF0QxD3llJhBdE+SHeKSDU7N+n4baRyRBeWjp5wxO+Q0rQq2tYfs+23i0TgLbEx7bifADjkb3mjS9X3G9ON9gi6YXu+ZopwdcjbM2AwM5td/G2C/T9AF2XVjikp2yO7Uphi1wvK6wua3GQXzPoPBDjnNVwGh9hc955lj6XcTvB5TE7NOWnFmaZidhD2WRhpLv5sg29ctxt3e4mMUGf0aucdgNB5/0/oVgL1hH/Z6/DHN9Zb9HlPjsGYK00NUD+J6eh/s6bWhckwKodpnaur7Cc5NiQhCkjmvA6i+nreRjEnhROkxNaLeTB+yIu0j/tCiZiaXq/dkeMyHpnE+HasnRATA7y4r9LtXIzDicWSDG6yeXg22K53VAdMeC4wb82gCfIrbHyKGHesK4FfYGxzq75+V2Ab+6TM1WGJ6Xl4r7RUomP7IFu4F/VlhBJJN2zTKm+RiHuIp0kWG9c14QzMyTG1XeLUX9IqdNjRyYY/L0OBGlwwNRAAz/P6bpWma/f0Oh/KPgjgdl6EhPn94OAkgA9i2DYwbVidK0aj8PSHo894/BpVja6SY+fBIy80Ae0yR0wH1aeP54DgOMC7Ufg/3+wXiOF4ftJE3IIbjszIHZon4sL2R9BElgi+xUl16qBpNOxuhFW0Dq0y7v6katr8ZbwttcIMsNO9pq8BEyWxcAcU1ZEUt44GR7wt5oiRk498HZNO8gLLn2x8SumnWIhCQEcfT4rjsu9h0X//9JCcz7by9TpZXkPVBQodU+in9u+is2talsEcyna2DQoi1or0CH1apnzvb0LZxMyQgJgmD9dnh1tHX0bzVNqFcaJLx/e+LfiPuFiCz/FJOzSEMNsU+8z8xuU4hL/0sUudnN56sFLqEA4/VvyvyTyH5KGRqWXXFJFoK4Uq23qr2JU2o2qO9DSeT1GRmX0jUayKvYFVqYlN9AtiO2CUqTT7KiB3/a+PdlmqB3kb1nYN/GckE/SscM6DIMLTl7qsYqEvLm3/tlprYmlVrjmG92lXW7VwGNjuCpi//Zum88s6duetV8zT7u8wd4WxbImlMo2oXzM5GPAFAoiHY2Cvo39/fyYqR4Ne67mxtoWOfoVEN318Cu2JgQIRiJ4hdfw15QzoCXV0ec/1uEf2sb5vB3YM0hiWHPfROALsJ8G4JA8iDE38HGHsjncjZY5UIzBFN9eomeKwOkT7iDg3DfczWjG7IqYPNI4v1zMUvSGO4PZPchhC10d+FBG95p0RgaiOOm9p4U+mO9D7uxSZjGzO8joqD/R/ejSJwRp3rPsdaOcIPcqZAtJ1xTRC6AS/7DsVbKhIgAzmf+9GnSjuw1N13aPRvuItEEzif2eY36qOQAH6q2XSvnVbwRMMnsi1PqCeZ+ksy+VdxvdnmT5Qly6WuHZkuF36m/tkEyug7abchu5aieMERRVGsX9syORwOh8Ph/J9wLUxHn0smn9/XX3HvP/UhvHTfkBbzqi6Bu1pivi4kuhH+eHplhUU/bkZPfbC4d6Aiu4WmZzTX4DkiDlyTi7hAIRvUieE9HWqFTMIV3zD0dDq/GQc+04AWhwwpsR3mZcubpfWUCmuKyF4BdysE4fCBruJt9k+ckaLSdERrmA8RXZ4uAiAyhWsgxfGUDWw+pBDdpLDKzTiOF3d8wxVUOgvfFnAMy+ZWAq0grXG73YYrWnFkKbdYJ8r+gUK6kvGZ2xEwhUnk//X9zy2d35TCCdwUGLZxEFmuLC7+mcKZ9hKFLFfrrmgzPZulXP7bOnyRwnpktiCjEsbOJY+KkemzYyA8KIRyo7CE2BxUm8NTjaAM4WE6WPs1PWxTeRY8VUgeROPWjgla5JAm3wEhU5hN4OAjXu5TKJDtAtyJm66y3W4OXTWLyDMpgJNFUaY2CmfqaqFr+jKj57lFhqkzojPyOqI1Dit1hw/T9E8/C9oK3WK3y3Y+GcVwZ5Gva46eZAU5p8oin2zPgPIIX+Y5BvVE4bxR6OkIAOS7XnvloahDqhDYTggQIv80svWhQnawQSGrkwgbCuSQVi+nuk2OIf/NqK2wIpYakCF9z3fwMXRH8+0CC9q3fBcwn7Ms47KVokgmxcFlwAq/m4QoftsoFA7zLACy8ZlKYuAyao1C8niBGVlJtD2Ob0hFyx9aPjFo5oKcedgeG19B97DCw3ppIIgvUMh2YN9D6vEFojA/TPjBCh2ZKaRvmHQyiUsh677AUSHbAnmmN4fiwsbKsQ7hnLQLUudyZLK0OP0SYPqTvVRvv0/OenIdwmq/X5NbQMyryUGhlZS5TV0I6dMtJoc6tPOpRg2vY11RuKcFpefZgmkdFVp0twwRe92gJNUq6Ml6SlbkIA0Wml6y7wtt+0nbfTcKrSQ26Ut6D9UKrQls/CHu3sDalgLBJ504b0GOCWfdCl3y3Ahg07WicjVrbKk2gbTijIU8gXSyo7ggZlQlpxHVR2/xrGcmHhT6bIkh8OW2wkmnP2Tf/UXuRnwjdipUPkn95MdZbFQh0iZKSesS3xeQjSdTX0y79GY0eaE/bBQKGjH1/QpLppDuKHBNobckQpJjPTCFJSRbSQAU4aPlNfnK0MPeUfYWIqnY1yoENl2Bh1DmXirs6rV9DStcHHs/rJU6Kr3XS1K3MnFFwN7tI+xryTapdPuvlynE7llVmbfVq5cpFNiTycJUbhQKgD49kU6wfa1Cakjqhfd/XqiQuhjW5uXzjQxerZBAtxPCfuhlCgGrq6BbYf56hZsXKwR2yNyN1VJ42CfMSH6Dwn2vQqTLVCJdj88U2kVQ1dDx4nEpvPSHkOxS36OwnNA+m0gcJfMW9lm662URMKRQH2x0KOzwh9aOHLM99GksKLvVisVa5x4fHj0+20tTiuCJxyewgJAqbDZnepZCIOyJr1DVld00vHOFeeVaOEqtFSqWZXkRzXk4ClMo2P7ezwUaG9Bem0/7nL6HD1VmG3jsl85oAKPhkDol55mJQh7Mig+KZgeF4hJ/nfWcbhurwzA06VN8qUUrT/0h3QfLzpOFXtQ9b5s8XTyn/QNi4C22jxT2a7VtpD1v9pQhW18ulrkmuEeF8opEEmIGsRh26bXvJ4upZq6JpIrOQ7YXyTQZfmDW7QpbcyqB0PRp6idyMh8pGqK0qhUKdKUaPZhsdyxHLavf1CEOc+k12VK2D68VAXv0N0PFxM1EdmkyXwVH1HR+rZfXHxpP2ndfPdvTQ8QNi+RLj3VYNTux4Ppq4sNaDe3h4YblNJWHxEMdwmJ7FE4j4EYhjpFIO8U9N2/ZXoyKEO3LNfv3AfCc+PDrw2xj6xH5Gm+LG63EsvowCiUR0P1zcQQc05+bTgsyURlRA+pmgET5hgnKdbHAJ9LdPWVVx+2WHIvMjwzHFOSSAmmIVkJuiXiFu4pJaBqIXc20mV3yEnxlHGIb8ddTFFZRi326UViZVfJ2zmy9O1vpWlguMtx7naXZelpqIX2vNquBrGJBPoiKwIXkginrlXlqNtXCUMt9/LO5BbkkfaQFDNJ9uo9IAGXN9kmJD8FX+9qwfaShoq7xF+h++pwFRCQT2KL98TGdJ9Psn0yzizJ7U79vDj9+gA84/AHWx8ry2SXJV9WvYcfV5LMPOBwOh8PhcDgcDofD4XA4HA6Hw+FwOBwOh8PhcDgczi38B1DbHq4tP4xeAAAAAElFTkSuQmCC;" parent="1" vertex="1">
          <mxGeometry x="255" y="50" width="80" height="80" as="geometry" />
        </mxCell>
        <mxCell id="qi98abLlbHQPDHmzHjWW-5" value="" style="shape=image;imageAspect=0;aspect=fixed;verticalLabelPosition=bottom;verticalAlign=top;image=data:image/png,iVBORw0KGgoAAAANSUhEUgAAAOEAAADhCAMAAAAJbSJIAAAAkFBMVEX///8fUIEbToAVS377/P0ARHr2+Prh5+0YTX+mtMYzYY5JbpZXep8TSn0MSHzm6/AkVYU/ZY/x9PjD0N3a4uq4yNh3ka5lhqjT2+QqXIxhfZ8APXaSp78AQXizvcxsial9mrabsceJnrdmf59xkK9QdZu+yth4jamvwdI8apU3XoqhsMODlrBad5qVrMTK1uHGjOZHAAAOeUlEQVR4nO2diZaiOhCGJQQIIKuIYMMgtDhg2/L+b3ezgKIi2C4jfU++M3OO2oD5TahKVRYmEw6Hw+FwOBwOh8PhcDgcDofD4XA4HA6Hw+FwOBzO78ENglmKWS/arMlHsyBw3128u4GwmkfrvDQ/YkmSTIwhtjHIR/gv8YdZ5utoXkH47iLfiuy6gbrKbazMNBEShkEIa40/7HylBq4rv1tAL7LlzVdTG2tD4AZppwCEddrT1dyzRqpS9mbRFMSm+HNxLZmiGYNpNPPGJ1LZRFNkdjZKAI63XUN9Y4LOXwNfZxptlHdLOkFRF2GXPKxMikMtXyZZlql/jqj4fbLMtRC3aEPsEhku1PFohF9L27ioDYTbW55E6qwKPMVyXbdtLCF+byleUM3UKMmF+PLnAYa9/BqJfVV827i4nSQTNzTPsuShQkLZsjzcxE3p4gY2bH8U1Wh9XhTNlJbFz+w+9jHFUjIvWvmn9bJy30523sBMYXVfuayVcK4RZU8u7R0o3+eGwr//d7f880r8fn87tZanCsP0EfMA0/BU4fL9zfRMIfp8zFfLn2jsCpMHr5eMXqFTPXS5yhm7QgHkm/tvRLjJTz3PGBQq5wqRs7u3Gqudg84Vvt+WTv6ed2gQcJLi57G7WyQOOPetxt8XlPin7C56IgAh21mmwe2tFQbp0rHRZVRp7l5Y8lv5e6GQViQCAEftRTB4flCschuA7nSAOYY6zK5EvIBF7R+Cnqz2m3nlyid4881+lejCB8sIXLkIGkMd7u3uwh0g4S9JORGEsiwF+iomYXBXaHiCvX+3PEw6pPC0Um5KTo1LYbF9JDEzQFi8Wx5m/kKFQJu/Wx4m0H/U7n6m0Jm9Wx5GeaFCpHvvlodx8yGD+NsVTpavUygu3y2OkvzvFWbXOiSPA1bvFkeJXqYQCCNItWGKH3VqfoSdvlscZRO+rJXaY+jSTCbeyzo1YPtY0udZyM6tChGJMXBMcWsXAWxHkMMgOLeV2IzzTJ0FMzXL486o+fIXcd4trWZxi0JD9AOXjkRB2Q188Ty706lQf7e0Gn/Y5YN4epK2gcE0Hm7bD6eXn0U6WIfIVs/TUlC1B08Tx+EOsbsYmpzQHebNtaFaROo/19KNcjnEfSpw2+3WhrIDQBxDdEgxByoja8ajoBIEgdI0WDnrPw0YI3EWk0l/cwN5U9Dqa1Fq5eKr8eNK3n+i+S5BFyz6TX99N8lqKYkIIFEq1bpS1d7zkPY+SWes+hw4cmo50cF4IjtiH8m9nQVx+j5JZxRSTzmNVX1QeFSDmizhqq/2zdW7BF0QxD3llJhBdE+SHeKSDU7N+n4baRyRBeWjp5wxO+Q0rQq2tYfs+23i0TgLbEx7bifADjkb3mjS9X3G9ON9gi6YXu+ZopwdcjbM2AwM5td/G2C/T9AF2XVjikp2yO7Uphi1wvK6wua3GQXzPoPBDjnNVwGh9hc955lj6XcTvB5TE7NOWnFmaZidhD2WRhpLv5sg29ctxt3e4mMUGf0aucdgNB5/0/oVgL1hH/Z6/DHN9Zb9HlPjsGYK00NUD+J6eh/s6bWhckwKodpnaur7Cc5NiQhCkjmvA6i+nreRjEnhROkxNaLeTB+yIu0j/tCiZiaXq/dkeMyHpnE+HasnRATA7y4r9LtXIzDicWSDG6yeXg22K53VAdMeC4wb82gCfIrbHyKGHesK4FfYGxzq75+V2Ab+6TM1WGJ6Xl4r7RUomP7IFu4F/VlhBJJN2zTKm+RiHuIp0kWG9c14QzMyTG1XeLUX9IqdNjRyYY/L0OBGlwwNRAAz/P6bpWma/f0Oh/KPgjgdl6EhPn94OAkgA9i2DYwbVidK0aj8PSHo894/BpVja6SY+fBIy80Ae0yR0wH1aeP54DgOMC7Ufg/3+wXiOF4ftJE3IIbjszIHZon4sL2R9BElgi+xUl16qBpNOxuhFW0Dq0y7v6katr8ZbwttcIMsNO9pq8BEyWxcAcU1ZEUt44GR7wt5oiRk498HZNO8gLLn2x8SumnWIhCQEcfT4rjsu9h0X//9JCcz7by9TpZXkPVBQodU+in9u+is2talsEcyna2DQoi1or0CH1apnzvb0LZxMyQgJgmD9dnh1tHX0bzVNqFcaJLx/e+LfiPuFiCz/FJOzSEMNsU+8z8xuU4hL/0sUudnN56sFLqEA4/VvyvyTyH5KGRqWXXFJFoK4Uq23qr2JU2o2qO9DSeT1GRmX0jUayKvYFVqYlN9AtiO2CUqTT7KiB3/a+PdlmqB3kb1nYN/GckE/SscM6DIMLTl7qsYqEvLm3/tlprYmlVrjmG92lXW7VwGNjuCpi//Zum88s6duetV8zT7u8wd4WxbImlMo2oXzM5GPAFAoiHY2Cvo39/fyYqR4Ne67mxtoWOfoVEN318Cu2JgQIRiJ4hdfw15QzoCXV0ec/1uEf2sb5vB3YM0hiWHPfROALsJ8G4JA8iDE38HGHsjncjZY5UIzBFN9eomeKwOkT7iDg3DfczWjG7IqYPNI4v1zMUvSGO4PZPchhC10d+FBG95p0RgaiOOm9p4U+mO9D7uxSZjGzO8joqD/R/ejSJwRp3rPsdaOcIPcqZAtJ1xTRC6AS/7DsVbKhIgAzmf+9GnSjuw1N13aPRvuItEEzif2eY36qOQAH6q2XSvnVbwRMMnsi1PqCeZ+ksy+VdxvdnmT5Qly6WuHZkuF36m/tkEyug7abchu5aieMERRVGsX9syORwOh8Ph/J9wLUxHn0smn9/XX3HvP/UhvHTfkBbzqi6Bu1pivi4kuhH+eHplhUU/bkZPfbC4d6Aiu4WmZzTX4DkiDlyTi7hAIRvUieE9HWqFTMIV3zD0dDq/GQc+04AWhwwpsR3mZcubpfWUCmuKyF4BdysE4fCBruJt9k+ckaLSdERrmA8RXZ4uAiAyhWsgxfGUDWw+pBDdpLDKzTiOF3d8wxVUOgvfFnAMy+ZWAq0grXG73YYrWnFkKbdYJ8r+gUK6kvGZ2xEwhUnk//X9zy2d35TCCdwUGLZxEFmuLC7+mcKZ9hKFLFfrrmgzPZulXP7bOnyRwnpktiCjEsbOJY+KkemzYyA8KIRyo7CE2BxUm8NTjaAM4WE6WPs1PWxTeRY8VUgeROPWjgla5JAm3wEhU5hN4OAjXu5TKJDtAtyJm66y3W4OXTWLyDMpgJNFUaY2CmfqaqFr+jKj57lFhqkzojPyOqI1Dit1hw/T9E8/C9oK3WK3y3Y+GcVwZ5Gva46eZAU5p8oin2zPgPIIX+Y5BvVE4bxR6OkIAOS7XnvloahDqhDYTggQIv80svWhQnawQSGrkwgbCuSQVi+nuk2OIf/NqK2wIpYakCF9z3fwMXRH8+0CC9q3fBcwn7Ms47KVokgmxcFlwAq/m4QoftsoFA7zLACy8ZlKYuAyao1C8niBGVlJtD2Ob0hFyx9aPjFo5oKcedgeG19B97DCw3ppIIgvUMh2YN9D6vEFojA/TPjBCh2ZKaRvmHQyiUsh677AUSHbAnmmN4fiwsbKsQ7hnLQLUudyZLK0OP0SYPqTvVRvv0/OenIdwmq/X5NbQMyryUGhlZS5TV0I6dMtJoc6tPOpRg2vY11RuKcFpefZgmkdFVp0twwRe92gJNUq6Ml6SlbkIA0Wml6y7wtt+0nbfTcKrSQ26Ut6D9UKrQls/CHu3sDalgLBJ504b0GOCWfdCl3y3Ahg07WicjVrbKk2gbTijIU8gXSyo7ggZlQlpxHVR2/xrGcmHhT6bIkh8OW2wkmnP2Tf/UXuRnwjdipUPkn95MdZbFQh0iZKSesS3xeQjSdTX0y79GY0eaE/bBQKGjH1/QpLppDuKHBNobckQpJjPTCFJSRbSQAU4aPlNfnK0MPeUfYWIqnY1yoENl2Bh1DmXirs6rV9DStcHHs/rJU6Kr3XS1K3MnFFwN7tI+xryTapdPuvlynE7llVmbfVq5cpFNiTycJUbhQKgD49kU6wfa1Cakjqhfd/XqiQuhjW5uXzjQxerZBAtxPCfuhlCgGrq6BbYf56hZsXKwR2yNyN1VJ42CfMSH6Dwn2vQqTLVCJdj88U2kVQ1dDx4nEpvPSHkOxS36OwnNA+m0gcJfMW9lm662URMKRQH2x0KOzwh9aOHLM99GksKLvVisVa5x4fHj0+20tTiuCJxyewgJAqbDZnepZCIOyJr1DVld00vHOFeeVaOEqtFSqWZXkRzXk4ClMo2P7ezwUaG9Bem0/7nL6HD1VmG3jsl85oAKPhkDol55mJQh7Mig+KZgeF4hJ/nfWcbhurwzA06VN8qUUrT/0h3QfLzpOFXtQ9b5s8XTyn/QNi4C22jxT2a7VtpD1v9pQhW18ulrkmuEeF8opEEmIGsRh26bXvJ4upZq6JpIrOQ7YXyTQZfmDW7QpbcyqB0PRp6idyMh8pGqK0qhUKdKUaPZhsdyxHLavf1CEOc+k12VK2D68VAXv0N0PFxM1EdmkyXwVH1HR+rZfXHxpP2ndfPdvTQ8QNi+RLj3VYNTux4Ppq4sNaDe3h4YblNJWHxEMdwmJ7FE4j4EYhjpFIO8U9N2/ZXoyKEO3LNfv3AfCc+PDrw2xj6xH5Gm+LG63EsvowCiUR0P1zcQQc05+bTgsyURlRA+pmgET5hgnKdbHAJ9LdPWVVx+2WHIvMjwzHFOSSAmmIVkJuiXiFu4pJaBqIXc20mV3yEnxlHGIb8ddTFFZRi326UViZVfJ2zmy9O1vpWlguMtx7naXZelpqIX2vNquBrGJBPoiKwIXkginrlXlqNtXCUMt9/LO5BbkkfaQFDNJ9uo9IAGXN9kmJD8FX+9qwfaShoq7xF+h++pwFRCQT2KL98TGdJ9Psn0yzizJ7U79vDj9+gA84/AHWx8ry2SXJV9WvYcfV5LMPOBwOh8PhcDgcDofD4XA4HA6Hw+FwOBwOh8PhcDgczi38B1DbHq4tP4xeAAAAAElFTkSuQmCC;" parent="1" vertex="1">
          <mxGeometry x="255" y="50" width="80" height="80" as="geometry" />
        </mxCell>
        <mxCell id="czfyNqVmEKDJEXSuVN6o-7" value="" style="endArrow=classic;html=1;entryX=0.5;entryY=0;entryDx=0;entryDy=0;" parent="1" target="czfyNqVmEKDJEXSuVN6o-4" edge="1">
          <mxGeometry width="50" height="50" relative="1" as="geometry">
            <mxPoint x="173" y="180" as="sourcePoint" />
            <mxPoint x="180" y="170" as="targetPoint" />
          </mxGeometry>
        </mxCell>
        <mxCell id="qi98abLlbHQPDHmzHjWW-6" value="" style="endArrow=classic;html=1;entryX=0.5;entryY=0;entryDx=0;entryDy=0;" parent="1" target="qi98abLlbHQPDHmzHjWW-4" edge="1">
          <mxGeometry width="50" height="50" relative="1" as="geometry">
            <mxPoint x="173" y="180" as="sourcePoint" />
            <mxPoint x="180" y="170" as="targetPoint" />
          </mxGeometry>
        </mxCell>
        <mxCell id="czfyNqVmEKDJEXSuVN6o-8" value="" style="endArrow=classic;html=1;entryX=0.5;entryY=0;entryDx=0;entryDy=0;exitX=0.5;exitY=1;exitDx=0;exitDy=0;" parent="1" edge="1">
          <mxGeometry width="50" height="50" relative="1" as="geometry">
            <mxPoint x="172.54999999999995" y="290" as="sourcePoint" />
            <mxPoint x="172.54999999999995" y="350" as="targetPoint" />
          </mxGeometry>
        </mxCell>
        <mxCell id="qi98abLlbHQPDHmzHjWW-7" value="" style="endArrow=classic;html=1;entryX=0.5;entryY=0;entryDx=0;entryDy=0;exitX=0.5;exitY=1;exitDx=0;exitDy=0;" parent="1" edge="1">
          <mxGeometry width="50" height="50" relative="1" as="geometry">
            <mxPoint x="172.54999999999995" y="290" as="sourcePoint" />
            <mxPoint x="172.54999999999995" y="350" as="targetPoint" />
          </mxGeometry>
        </mxCell>
        <mxCell id="czfyNqVmEKDJEXSuVN6o-9" value="" style="aspect=fixed;pointerEvents=1;shadow=0;dashed=0;html=1;strokeColor=none;labelPosition=center;verticalLabelPosition=bottom;verticalAlign=top;align=center;fillColor=#00188D;shape=mxgraph.azure.computer" parent="1" vertex="1">
          <mxGeometry x="520" y="352.5" width="108.33" height="97.5" as="geometry" />
        </mxCell>
        <mxCell id="czfyNqVmEKDJEXSuVN6o-10" value="&lt;b&gt;Jenkinsfile&lt;/b&gt;" style="text;html=1;align=center;verticalAlign=middle;resizable=0;points=[];autosize=1;" parent="1" vertex="1">
          <mxGeometry x="133.05" y="150" width="80" height="20" as="geometry" />
        </mxCell>
        <mxCell id="qi98abLlbHQPDHmzHjWW-9" value="&lt;b&gt;Jenkinsfile&lt;/b&gt;" style="text;html=1;align=center;verticalAlign=middle;resizable=0;points=[];autosize=1;" parent="1" vertex="1">
          <mxGeometry x="133.05" y="150" width="80" height="20" as="geometry" />
        </mxCell>
        <mxCell id="czfyNqVmEKDJEXSuVN6o-12" value="&lt;b&gt;Config.yml&lt;/b&gt;" style="text;html=1;align=center;verticalAlign=middle;resizable=0;points=[];autosize=1;" parent="1" vertex="1">
          <mxGeometry x="420" y="250" width="80" height="20" as="geometry" />
        </mxCell>
        <mxCell id="czfyNqVmEKDJEXSuVN6o-16" value="" style="shape=image;imageAspect=0;aspect=fixed;verticalLabelPosition=bottom;verticalAlign=top;image=data:image/jpeg,/9j/4AAQSkZJRgABAQAAAQABAAD/2wCEAAkGBxASEBISEhESFhIXFRUYFhUQFRYVFhgVFRcWFhUXFxUYHSggGBolGxUXITEhJSkrLi4uFx8zODMtNygtLisBCgoKDg0OGxAQGy0lHyUtLS0tLS0tLS0vLS0tKy0tLS0tLS0uLS0tLS0tLS0tLS0tLS0tLS0tLS0tLS0tLS0tLf/AABEIAJIBWQMBEQACEQEDEQH/xAAcAAEAAQUBAQAAAAAAAAAAAAAAAwIEBQYHAQj/xABNEAACAQICBAYJEQcDBQAAAAAAAQIDEQQhBRIxUQYHEzJBcSIjQmFygZGhsRQVFzNSU1Ric4KSk7Kz0dLhNDV0orTBw8LE8SRDY4Pw/8QAGgEBAAIDAQAAAAAAAAAAAAAAAAECAwQFBv/EADoRAQACAQIDAwsCBgIBBQAAAAABAgMEERIhMQVBURMUIjJSYXGBkbHwFcFCU2KhwtEzcrI0Q4Lh8f/aAAwDAQACEQMRAD8A7iAAAAAAAAAAAAAAAAAAAAAAAAAAAAAAAAAAAAAAAAAAAAAAAAAAAAAAAAAAAAAAAAAAAAAAAAAAAAAAAAAAAAAAAAAAAAAAAAAAAAAAAAAAAAAAAAAAAAAAAAAAAAADA8PJNaNxbTafJPNZPaukmOqLdHF8Jh9aMHKviFKSjzZZLXnKC2v4pv0wY5rG+/Nxcuty1taKxG0b9d+7aVUKEXq9vxOer0ruozkundB+YnzfF4yrbW547o7/AB93+2xcWestKavKVJReHlJcpJvnclLZe18zWz0ik7Q6Oky2yV3t15x9HYjXbgAAAAAAAAAAAAAAAAAAAAAAAAAAAAAAAAAAAAAAAAAAAAAYDh7+7MX8k/SiY6q26S45gNlHqoffVDp06V+Efd53N61/jb7Q8w+yn1Uvuq5Ne75faS3f8/vVsXFt+9Y/wi+zRNTU9flH2dTQerPxn7uwmq6AAAAAAAAAAAAAAAAAAAAAAAAAAAAAAAAAAAAAAAAAHKK3GVj+Vqwhh6ElCpKN+zv2Mmlfs+8ZqYLX5w1M2rx4p2vOyn2SNJfBaH8/5y/ml/Bh/U8Htff/AEplxmaRUox9S4e8naK7PN/TInTXiYiY6sldditE2ienVP7IOlPgdD+b85Pml/BT9Swe191jpzhlpGvh6tGphaMYTg1KUb3S2tq89yHmt457H6hhtyi33a1gcTJQp/8ATuVlG0te19WcpRytvbNvHNuCNq7/ADc3URjjJaJybe7b3JIVpK1sLLLVt233MZRXRuky/pex/dinyc/+7H0Z/izqN6Wzhq2w0lq31rKPJJZ9OSNHUzMzzjZ2NDFYp6Nt+c83ZDWb4AAAAMNwq4Q0sDh3WqZvZTgnZzm1ku8ulvoQiN0TOyPgrwow+Pp61N6tRW16Un2UX/qjua8zyJmNkRbdnSFgAAAAAAAAAAAAAAAAAAAAAAAAAAAAAAAAfO1T27EfxNT/ACnQ0/qfP9nD13/J8v8AKEXc/Nf9PEyx0/PBrfxfP/NPS9vo/LP0QE+tX4/sY/8Ajv8A9Y+8pMMva+ql91XJr+fSS/f8/vV7T5vzf9pER0/PAnrHx/zWuE2Uuql97MinSvwj7yZ/Xv8AG3/jDyjsh1U/u6giZ+32lFu/5/eG0cV/70X8K/RSNPU9flH2dXs/1J+Nvu7KazogAAAA4/w5xTxWluSedLDQSt0a7UZSfllFfMN3R4otdy+1M/k8U7dZ5MViqVXD1Vi8K9WrDOSWyS7q66U+lePajb1eliY46/Nz+ztfMT5O88u6XX+C+nKeNw0K8Mr5TjtcJrnR/ut6aOPMbPRxO7LBIAAAAAAAAAAAAAAAAAAAAAAAAAAACy0tpWjhqbq156lNNJytJ5yyWUU2ETOzCeyDor4Uvq6v5CeGUcUHsg6K+FL6ur+QcMnFDjfLQlUrSU4pOvKS1na8Xylmr+Eje0+3DzmI/wDxxtdW3lImsTPLu+MS87HVtylPY1zl7yoelGfl7UfkbNSOPffgt9P6t1casFVovXjZVXJtPJK0Fd7tjK2tWLV5x1ZMWO80v6M+rEdPfK5o6i1e3UclDu13NOrF+ea85avDH8Ufm7HaLzv6Fvp74/0a0FF9tpO0Xkppv9nVPL5yG9Yj1o/IWit5mPQn6f1brPCSjq025wVlC6crPsZyk/MytJrtHOO5Oorfyl4iszznu8YiHtPVSj2ynkod17mM4vzyRMTXxj83Y54539C3f3e+JZngLpbD4bSHK1qijTVBw1kpSWtanl2Kb7l+Q09RtM8vCHW0ETFPSjbnP3dL9kHRXwpfV1fyGvwy3+KB8YWivhS+rq/kHDJxw2anNSSa2NJrqewhZUAA4gnfSOkG9vLzXiVSa/sjq9n97z3bMztX4yvjpuEueLXFvD6Rq4W/a60HOK3SgtZW+brr5qODq8fBeYh6/s/N5XFEz8Pm6hWx1GDtKrTi90pxT87NVvbq6OIhPmTjLwZJ+gJ3S3AAAAAAAAAAAAAAAAAAAAAAAAAADS+Nz92T+VpfaLV6qX6OTzUUva6eSe2O6lr+k6k8MR0j8h5yLXm3r26+P9Wz2ooq/a6eWv3K7lQt9pieH2Y7/wBlYnJO3p27u/4/6S4OlBSq3pwfbdVa0b2WpUlluziitK1ibco6s18mS1KelPq79ffEJOw1W+Ro31W+YtvqdVftPyFuW3SPyFPT3247fX+rZHjaUNeklTglysovVildKNNq+/nMreI4q8o6/svTJeMd/Sn1Yn+8oaeq9W9Onmo9yumM5PzxRbavsx+bsdpyRv6du/v98R+5qwafa6fNeyK96U/SxtWY6R+QcWSto9Oevj/Vt9lzgKcNSknSpu6pXcopt69ScXn1RRXHFeGvKO5kz2vx29Kes9/hEKqWo1DtNHNU79gu6hUk/PBFo4fZhSZvz9O3f3+Ex/taypw5ST1IW1KLtq5Jz1Nay+cysVrxzy7oXve/kq+lPW3P4b7PYxhddrp7Y9yumpKL80UWjh9mPp72KZvt69u/v90Stcco8i3qQTtB3irc5Sv6EY8sV8nyiO5s6W1/LxE2mfW6+59G4H2qn4EfQjmu8nAAcY09Q5DTGJg8o1rVId/WWs/Oqi8R0dBfa+3i4va+KbY+LwlMdd5thdLYJzrKSm42hq3jfW7q/VkzUzaXytt9+Tf03aMabHwxG87rWGhKK90/Gv7IRoccdd1bdsZ5nltD1aJjFqVOc4SWyUXmvGrPzkW0FJ6SvTtrNHrREtv4v+EukJYyODnNYinZuU5316cYrbr7ZZtKzvm1mjk5sfk7cL0el1E5qRfbbd1UwtsAAAAAAAAAAAAAAAAAAAAAAAANL43P3ZP5Wl9otXqpfo5NW2PwX/TnTt+fR5yk8/n/AJva3df+z0UiZ/3+yK93y/dcYXnVfl/8dUiPWt8f2lkn1Mf/AF/ygv2D8F/0cR3fngj+KPz+MxftlL5ef2KRNvWr8f2hFf8Ajv8A9Y+8raj3PVD7uqRWen53SWnr8/vV7HZ83/bobcvzwRPX5/5rrA82h1UPvqhFOlfhH3lfP69/jb7Q8w7yp9VL7quTXu+X2lF+/wCf3hBLnv5PDf4iI9afhH7Jv/x1/wC1/wB3kNseuH31QtHLb872Pun5/wDjC1xntD6qX2ZmPL/xz8mxpv8A1Ef/AC/Z9HYH2qn4EfQjmu+nAixOJhTi5VJxhFbZTkopeNhEy5JxmacwWKnR9SynUxNOTWvSj2Gpt1bvnNOzTSa528zYotxei18845rPH0Wka89SOukqjWaTuk//ALoPQ45tNY4urxeea1vMUneFuZGtKmckldtJb3kVm8RG8rVx2tO1Y3WkcRUrVFRwsJVKstmqtnf6lveSNDUa2Ijajs6Lsm1pi2Xp4OscBOCkcDRes1LEVLOpNbFbZCL3K7z6W29yXGtbeXqKUisbQ2ghcAAAAAAAAAAAAAAAAAAAAAA0rjV0rWw+EpSo1JU5yrRjrQdnq6k215Ui1Y3lS87Ru0JaU0rf9vqeV/gdKOz58YcH9cpvtwyp0hS0hXg6dbGSnC6erO7V1sewfp9vGF57Zp7MrVaJxNrcvG3g/oZvN83Tiac6rSTO/k/7nrTiff4/R/QnzfN7SPOdJ/Ln6lHROJg5ONeKcnd9jte/NERpssb7WZLa7TWiInH096X1Di/hK+j+hPkM/tqec6T+XP1RVtE4mbi5V4txd1lsbtuXeRW2lyzMTNui9ddpqxMRjnn15nrTiff4/R/Qt5DP7TH5zpP5c/UlojENNOvGzyeX6ETp80/xJrqtLE7xjn6qqOjMVGKjHEJJbFq7OncK6bNWNosm+s0t7Ta2Oeav1Di/hK+j+hPkM/tI860n8v8Auheh8RrOfLx1mkm7PYtnR3isabLE8XEvOu001is452j3qvWrE+/x+j+hbyGb2mPznSfy5+qOtoSvNWlWi1us/wACltJltG02ZMeu02O3FWkxPxZWOJ0qkktIVElks3s8hj/T7eMNn9Zp7Mkq2k5K0tI1bfFlJPzWEdnT4o/Wo9mVnLQmu9avWq1Zb5yb87bfnM1dBSOs7tbJ2vkn1YiP7ryFGnRVoQSb3bfG9rNymKlPVhzM+pyZPXndjtK4rUpylfsnkut9PiVympy8GOZ71tBg8vniJ6Rzls2i+LKvUo051MbOnKUIylT1HJx1lfVb11drqOHOe/jL10aPF14Y+kMtg+KnCp3rV61XvXUE/JeXnMc5JnqzVw1r0jZuWiNDYbCw1KFKFNdOqs34UnnLxspM7skRsvwkAAAAAAAAAAAAAAAAAAAABjtPaWpYWhOrVmopJ22XlK2UYrpbYhEzs1bgtxkYavCMMTKNCtbNyypSe+M3zeqXlZaayrW+/VaccVSM8Fh5xkpR5dZxaazp1LZrqJp1Vy+q1JdDPTRMbPATWeLb3p8VpKjT501fdHN+RGDJnx06y38OkzZZ9Gvz7kOB0vSq9OrL3M2k+9Z9JXHqqZPcvqNDlxd28e5kDYaYNgBEbrTFaTo0+dNX3R7J+RGG+ox06y2cWjzZPVqx+E4RQlJqa1Y37F7cvjGvj11Zttbk3cvZV60iac57/wD6ZmnUjJXi01vi7rzG7Fot0ly7UtWdrRsqLbKPJySV20lveS8pWZiOq1azadojdh8fp+EMqfZu+b7m3TZ9L8xp5dbWvKvN09P2Xe8b5OX3XeE0vRqbJpP3M+xfnyfiM2PU4797WzaHNjnnG8eML5GbfdqzWY6hOyACw0jpSnSTV05+5Wb8e4w5NRTHHNs4NHlzTtWNo8ZWdDSFOfdJS3Syf6k49TjvHXZjz6DPinnG8eML7gror1dpCEWr0KHZ1Nzs8o/OkkrboyOZrs3HbaOkPQdk6SceLit1l2yc0ldtJb3kjnuy1LhJxg4PDRapzjXrdEKTvFP49RZJdV33iYqrN4hkeB3CCGNw1OopxdVRSqxWTjU7rsdqi3mu8JjZMTuzxCQAAAAAAAAAAAAAAAAAAALTHYOVRWjXq0vkuTv5ZwlbxBEtXx3Fvha09etiMZUn7qpWjJ9SvDJd5FuKUcMSt/Yq0f7vE/WQ/IOOTghg+GfF5hcLgqtehKs5wcG1OUXFxclGTsorNJ38RMWVtWIholPDRlFNuWa3nVpp63rEzMvO5dbkx5JrERy9yaGjKdtsvKvwLeZ4/exT2rm8Ie+tdP43lX4DzLH70fq2bwhJTwSjzZ1V4M7egtGmrHSZUt2je3WtfokdGXv1b6xk+Qj2p+qnns+xX6Ip4CMudOo/Clf0kTpaz1mfqyR2lkjpWv0UetdPfLyr8CvmWP3rfq2fwg9a6e+XlX4DzLH7z9Wz+EKoaOgndSmnvTt/YmNJSOkyie1Ms9Yj6JeQl77W+sZfyEe1P1YvPp9iv0RVNHxlzpTfhSv6UUnS1nrMsle08tfViI+Sn1rp75eVfgR5lj9636tn8IPWun8byr8B5ljT+rZ/CFUNHxXNlUXVK3oRMaWkdJlS3aeSetY+iZUZe/VvrGX8hHtSx+fTP8FfogrUb5OpVfhTbInTRPWZ+rLTXXr0rX6IPUEO/wCVfgU8yx+9l/VM3uRYjCxVlFSc5NKMVm227LK2e7xmtnw48ccurd0epzZ7c4jaPc6noPixoxowdatiI13FOpyFRQim+5XY52va9zQ4nYikQu63Ffgp8+ri5eHVjL0wHFKeCFHsVaP93ifrIfkHFKOCEmG4scHTkp062LhNbJU6sYyXjULjilPBDaNH6PnSyeIr1Vurcm/5owUn42VWX4AAAAAAAAAAAAAAAAAAAAAAC10rgo16FWjLm1ISg/nJq/nCJ6PnuhTlTlOjNWnTnKMl302n50zsaK+9OF5vtTDw5OPxXdGXQbrj2jvTEqAACvD0ZTnGEVeUmkl33kitrRWN5XpSb2isdZZLC6JjWhWlQrxqyo210ouKd9b2uTfZ819CT6DUpra2tts6WTsrJSnFvvPgxJuuU9AAAAAJUymkQmIQzqNheI2UBKmrUUVd/wDJTJkild5ZsGG2a/DVvXFhwUlKSx+Ij8hB7vfWurm+N7jh5ss3tvL1en09cVIrDqBhbIAAAAAAAAAAAAAAAAAAAAAAAAAAAAByXjV0E6NeOOpx7XUtGql0TStGT70kkuuK3mxp8vk7RLT1mnjLjmGoRmnmmdqt6z0l5S2K9Z2mFxCon1l94Ypx28FTkt68pE2iO9EY7z3Sjniqa2zj4nf0FLZ8cdZZqaPPfpWUmitLKNaM4JtwalmuxdnmnuuYvK0zb0hsTpsml2y225T03XeCw+EoVeXpOtKaUuTp1IxUabknG8pptzSUnZWXRc1q6K3Fznk3cvatJxzFYneVqdJwXpIAAKZTSIWiN0Uqr6AtFdkYWAKatVRV3/yY8mWuON5ZsGC+W21W1cBOBc8XKOKxUbYdZ06b/wC7ubXvf2urbxs2eby9RpdJTDXaHX4q2w1249AAAAAAAAAAAAAAAAAAAAAAAAAAAAAAQY7B061OdKpFShOLjKL6UwOKaT4MUcDi+SxkaksNUfacRBtW700lZtdPVdZZLLFt2C1Zhn4cBMBJKUXVcWrpxqJpp7Gnq5oMaajwE0eudTqS66kl9mwN2WwfBbRkNmGpt/8Al1qn220DdjeG2h46ka9KMUoLVnGCSWr3MrLc3bqa3G9o8u08E97kdqaebR5Svd1aWdJwdnjYTspc1vCeGVLrbgnhUSqMLREKAkAWAilWbkoU4udRuyjBNtvdZZt95Grm1VaRtHOXQ02gvl525Q6DwO4unrRxGPSctsaGTit3KWyb+Kst9zk5MtrzvL0WHT0xV2rDpaRibD0AAAAAAAAAAAAAAAAAAAAAAAAAAAAAAAAWmlNG0cRSlSrQU6ctqfmae1Nb0NzZzbGaGx+ipOVBSxOCvdwfPprpyWzwkrb0tpki0SwWpMMtoXhHhcUlydRKfvc7Rn4l3XiuSx7MsEPJJNNNXTyaexp7RE7dCY35S0LhJwclRbqU03R2tLNw7z3x7/l3vqafUxeOG3VwtZopxzxU6fZrpuOcAAABu23zkTMRHNNazbpCCWLjdKN5SeSUVe73d/xGtfV0r05t/D2dlv15Q2TQnAPH4q0qq9T0X7tdm13qe36VvGaGXV2t3uxg7Ox4+e28+MuncGuCmEwUe1QvUatKrUtKo/H3K7ysjTmZl0IrEM6FgAAAAAAAAAAAAAAAAAAAAAAAAAAAAAAAAAAADV+EHATA4pubg6VV58pQtFt75R5sn37X75MWmFZpEtdqcFtM4b9mxUMRTWyFfKXV2V/tItFoUnH4LappzSlHKvouo97o6zX8qmvOTvCnBKOXD2EfbMJiY9aX+qxMK8LW9L6XwNVuVKjiKc30asNRvqU+x8XkNzFq7V5W5udn7NrfnTlP9mOpurLmUK0vBhJ+hGaddXwa0dk377L3D6F0jU5mBr/PhKHnnqoxzrp7oZ69k175ll8HxfaVqc9UaK+PNN+SCl6TBfWXnpLap2Zhr3b/ABbDo7ioopp4nE1Kj9zTShHqu7vyWNe2W1ust2mClOkbNz0PwdwmFXaKEIP3VrzfXOV5PymPdliIhlAkAAAAAAAAAAAAAAAAAAAAAAAAAAAAAAAAAAAAAAAADywHoHlgPQAAAAAAAAAAAAAAAAAAAAAAAAAAAAAAAAAAAAAAAAAAAAAAAAAAAAAAAAAAAAAAAAAAAAAAAAAAAAAAH//Z;" parent="1" vertex="1">
          <mxGeometry x="533.28" y="380" width="70.89" height="30" as="geometry" />
        </mxCell>
        <mxCell id="czfyNqVmEKDJEXSuVN6o-17" value="" style="curved=1;endArrow=classic;html=1;" parent="1" edge="1">
          <mxGeometry width="50" height="50" relative="1" as="geometry">
            <mxPoint x="231" y="420" as="sourcePoint" />
            <mxPoint x="510" y="420" as="targetPoint" />
            <Array as="points" />
          </mxGeometry>
        </mxCell>
        <mxCell id="czfyNqVmEKDJEXSuVN6o-18" value="&lt;b&gt;Final Deployment&lt;/b&gt;" style="text;html=1;align=center;verticalAlign=middle;resizable=0;points=[];autosize=1;" parent="1" vertex="1">
          <mxGeometry x="305" y="430" width="120" height="20" as="geometry" />
        </mxCell>
        <mxCell id="qi98abLlbHQPDHmzHjWW-17" value="&lt;b&gt;Fetch Config.sh&lt;/b&gt;" style="text;html=1;align=center;verticalAlign=middle;resizable=0;points=[];autosize=1;" parent="1" vertex="1">
          <mxGeometry x="260" y="260" width="110" height="20" as="geometry" />
        </mxCell>
        <mxCell id="czfyNqVmEKDJEXSuVN6o-21" value="Playbooks" style="text;html=1;align=center;verticalAlign=middle;resizable=0;points=[];autosize=1;" parent="1" vertex="1">
          <mxGeometry x="138.05" y="495" width="70" height="20" as="geometry" />
        </mxCell>
        <mxCell id="czfyNqVmEKDJEXSuVN6o-22" value="Inventories" style="text;html=1;align=center;verticalAlign=middle;resizable=0;points=[];autosize=1;" parent="1" vertex="1">
          <mxGeometry x="138.05" y="520" width="70" height="20" as="geometry" />
        </mxCell>
        <mxCell id="qi98abLlbHQPDHmzHjWW-22" value="" style="shape=curlyBracket;whiteSpace=wrap;html=1;rounded=1;" parent="1" vertex="1">
          <mxGeometry x="128.05" y="470" width="20" height="90" as="geometry" />
        </mxCell>
        <mxCell id="czfyNqVmEKDJEXSuVN6o-27" value="" style="edgeStyle=orthogonalEdgeStyle;rounded=0;orthogonalLoop=1;jettySize=auto;html=1;" parent="1" target="czfyNqVmEKDJEXSuVN6o-12" edge="1">
          <mxGeometry relative="1" as="geometry">
            <mxPoint x="460" y="210" as="sourcePoint" />
          </mxGeometry>
        </mxCell>
        <mxCell id="qi98abLlbHQPDHmzHjWW-23" value="" style="shape=curlyBracket;whiteSpace=wrap;html=1;rounded=1;rotation=-180;" parent="1" vertex="1">
          <mxGeometry x="198.05" y="470" width="20" height="90" as="geometry" />
        </mxCell>
        <mxCell id="czfyNqVmEKDJEXSuVN6o-28" value="" style="shape=image;imageAspect=0;aspect=fixed;verticalLabelPosition=bottom;verticalAlign=top;image=data:image/jpeg,/9j/4AAQSkZJRgABAQAAAQABAAD/2wCEAAkGBw8QEBASDw8QEBAPEhAPFRgQEhUQEBEWFRIWFhUSFRcYKCggGBolGxgXITEhJSkrLi4uFx8zODMtNygtLisBCgoKDg0OGxAQGy8mICYtLS0tLy01Ky0vLzAtLS8tLS0tLS0uLS0tLS0tLS0tNS0tLS0tLS0tLS0tLS0tLS0tLf/AABEIAKIBOAMBEQACEQEDEQH/xAAbAAEAAgMBAQAAAAAAAAAAAAAABAYBBQcDAv/EAEcQAAIBAgIECQgGCAUFAAAAAAABAgMRBAUGEiExFSJBUVRhcZPREzJygZGhscE0QlJzkrIUIyQzYqLC0gc1grPwFlODw/H/xAAbAQEAAgMBAQAAAAAAAAAAAAAAAwUCBAYBB//EADgRAAIBAgIGCAUDBAMBAAAAAAABAgMEBRESFCExQZETUVJTYXGx0SIyM4GhBsHwIzTh8RU1Q0L/2gAMAwEAAhEDEQA/AO4gAAAAAAAAAAAAAAAAAAAAAGLgFfz7Selh7whapVXInxY+k/kbttYzrbXsRUX2L0rf4Y7ZfzeUbMc3r4h3q1G1yRXFguxeJdUbanS+Vfficpc31a4fxy+3AgmwaYAAAAAAAJuXZpXw7vSqOPOntg+1PYQ1renVXxI2ra8rW7zpyy8OHIu+RaU067UKlqVV7Ft4k+x8j6ikubGdL4ltX5OrsMYp3D0J7JfhlkuaJcgAAAAAAAAAAwAZAAAAAAAAAAAAAAAAAAAAAAAAAABhgFO0r0lcW6OHlaW6c19X+GPXzvkLSystP46m7gjm8WxbQbo0Xt4v9kUku0cs3ntYB4AAAAAAAAAAANoTLloppM7xo4iW/ZCb90ZP4Mp76x/9Kf3XsdPhWLPNUaz8E/2ZdUyoOnMgAAAAAAAAAAAAAAAAAAAAAAAAAAAAAAAAAAAwAV/S7OXh6SjB2q1bpfwrll8kbtjb9LPOW5byoxe+1elox+aW7wOcM6JbjiGwAAAAAAAAAAAAAAAAdD0Nzl16bp1HerSS2vfOPI+1bn6jn7+26KWlHc/U7TBr/p6ehN/EvyiyXNAujIAAAAAAAAAAAAAAAAAAAAAAAAAAABhgHjWxVOHn1IQ9KSj8TJRlLcmRyq04fNJL7kd5zhek0fxxJNXq9lkGvW+eXSLme9HGU5+ZUhP0ZJ/AjlCUd6JoVqc/lkme7ZiSt5HKc/x7xGIqTvxb6sfRjsXj6zprSj0VJR4nz7ELl168p8OHka42TSAAAAAAAAAAAAAAAABNyfGuhXp1Fui+N1xeyS9nwILml0tNxNqyuHQrRqLr2+Racw03SbWHp638VTYvVFbfgVlLDJPbN/Y6C4/UEVsoxz8X7Gnq6XY2W6pGPowj87m4sOoLhmVksbu3xS8khS0uxsd84z9KEf6bB4dRe5ZCGOXcd7T80brL9NotpV6bh/FDjR9a3r3mlVwyS2wefgWltj8ZbK0cvFFqw2JhUipU5KcXucXdFbKLi8pI6CnVhUjpQeaPYxMwAAAAAAAAAAAAAAAAAAAaXOtIqOGvF8ep9iL2r0nyG1b2k621busrb3FKNtse2XUUvMdJ8VWutd0ov6tPi+2W9lxRsKVPes34nL3OL3NZ7HkupGmk23dtt872s3UktxWSk5bWzAPAnZ3Wxr2hrM9TaeaNnhs/xVOLgqrlGUXG0+Pa6tdN7UzVnZUZPPI36WJ3NOLipZrxNYbRXgAAAAAAAAAAAAAAAAAAAAA9AAB4DYZNm1XCz1oO8W+NF+bJfJ9Zr3FtCssnv6zdsr6pazzi9nFdZ03LMfDEU41KbvGXJyxfLF9ZzlWlKnJxkd1bXELimqkNxLIycAAAAAAAAAAAAAAAAFX0s0j8jelRf61rjPf5NP8Aq+BY2Vn0r0p7vUosWxToP6VL5uPh/koEpNttttt3be1t87ZepZbEcfKTk83vMHp4AAAAAAAAAAAM0Mj3pYKtLzaVSXowk/gRyq0472iaNvVlui+TJuF0exdRKUKL1ZJNNuMU09z2shne0YPJyNmlhd1UScYbGbCjoXin5zpQ7ZNv3I15YnSW5Nm7DALl72kT6Ogr+viPww+bZDLFXwibdP8ATvbnyXueuL0Pw9KjVnr1ZShTnJXaSuotrYkYQxGpOajkltJKuB0KdKUs22k2UcuzlAAAAAAAAAAAAAAWHQzM3RrqnJ/q67Ueyf1X8vWivxGhpw01vXoXWC3nQ1ujl8svXgdGRQHaGQAAAAAAAAAAAAAAazSDM1hqMp/WfFgueT3epb/UT21F1qijzNLELtW1Fz48PM5ZVqSlJyk25Sbbb3tvezp4xSWS3HATm5ycnvZ8npiAAAAAAAAABxB0jJcgwjoUZyoQlKdOEm5LWu3FN7Gc7XuqynKOk9529nh1s6MZOCzaRuKOBow8ylTj6MEvgasqk5b2yxhb0ofLFL7HrOOxmK3kkllF5EPJF+zUPuqf5UZ1vqS8yG0+hDyRPIzYABCzn6NX+6qfkZLQ+pHzRr3f0J+T9Dkh1SPnIAAAAAAAAAAAAAPqE3Fpp2aaa6mjySTTTPYycWmjr+Cr+Upwn9uEZe1JnJzjoya6mfSaM9OnGXWke5iSAAAAAAAAAAAAGGAc+08xrnXjTT4tGO30pbX7rF7hlLKnp9Zx+PXGnWVJbo+rKyWRQgAAAAAAAAAAAHWsk+jYf7qn+VHLXH1ZebPoll/bw8kTiE2j5nufYwt5jL5WQ8j+jUPuqf5USVvqS8yG0+jDyROIzYABCzn6NX+6qfkZLQ+pHzRr3f0J+T9Dkh1SPnIAAAAAAAAAAAAAAB0bRvO8O6NGn5VRqQhCDU+LdpW2N7Gc7d21WNSUstjO2w3EKEqMKellJJLaWFM0i4TzMgAAAAAAAAAAAwwDkudVtfE15c9SfsTsvcjqbaOjSivA+d309O4nLxZCJjVAAAAAAAAAAAAOm5Rjaiw9BLC1pJUqaupUrPiraryuc1XhHpZfEt76/Y7y0rTVCC6N7l1e5L/T6vRK/wCKj/eRdHHtL8+xsdPPu3+PcxLHVbP9kr/io/3hU45/Mvz7Hkq88n/Tf49yLlGMqLD0UsLWklTpq6lSs+KtqvK5JWpx6R/Et/j7ENtXmqMf6b3Lq9yX+n1eiV/xUf7yPo49pfn2J+nn3b/HuP0+r0Sv+Kj/AHjo49pfn2HTz7t/j3Iua42o6FZPC1op06iu5UrLiva7SuSUYR6SOUlvXX7EF1Xm6M/6b3Pq6vM5idOcEDwAAAAAAAAAAAAAAAG5yfSOvh2lrOpT+zN3t6L3r4GnXsqdXbuZaWeK17dpZ5x6n+xf8ozaliYa1N7VbWi/Oi+Zr5lFWoTpPKSOvtL2lcw0oP7cUbAhNsAAAAGLgELMM2oUP3tWMXzb5PsitpLTozqPKKNa4vKNBf1JZepoMTpxRX7ulOfXJqC+bN6GFzfzNIp6v6gpR2Qi3+CG9Op9Hj3j8Cb/AIpdr8Gs/wBRT7tcyp1p60pS+03Lsu7lpGOikjnaktOTl1vM+DIxAAAAAAAAAAAAOtZH9Gw/3VP8qOWuPqy82fRLL+3h5InEJtHzPc+xhbzGfysh5H9GofdU/wAqJK31JeZDafRh5InEZsAAhZz9Gr/dVPyMlofUj5o17v6E/J+hyQ6pHzkAAAAAAAAAAAAAAAAAAkYDG1KFRVKctWS9jXKmuVEdWlGrHRkT29xOhNTg8mdOyPNoYqkpx2SWyUeWL8OY5u4oSoz0Wd1ZXsLqnpx+66jZEBugA+ZzSTbaSW132JdYPG0lmykaQaXNtwwrtHanU5X6HMusuLXDl81XkcviGNttwt+ft7lSnNybcm23vbd2+1veWySSyRzkpOTzk8z5PTEAAAAAAAAAAAAAAAAHWskf7Nh/uqf5UcrXf9WXmz6JZf28PJehNuRG0YnufYwt5jL5WQ8j+jUPuqf5USVvqS8yG1+jDyROIzYABCzn6NX+6qfkZLQ+pHzRr3f0J+T9Dkh1SPnIAAAAAAAAAAAAAAAAAAANno/mjw1aM9upK0Zrnjff2reat3bqtDLitxv4ddu2rKXB7GdTpzTSad00mutM5p7Hkd8pJrNGWD0oWmWfOcnQpS/VxdptfXkvq9i+JdWFporpJb+ByWM4k5ydGnuW/wAfAqpanPAAAAAAAAAAAAAAAAAAAAn4bOsVTSUK80lsSvrJLmszXna0Z7XE3KWIXNJZQm8jYUdL8ZHfKE/Sgv6bEDw2i92ZuQxy7jvafmidT04q249CEvRk4/G5C8LjwkbS/UNTLKUESMr0xo06dOnOlU4kIwvHVknZWvyEVXDajk5Jo2LfHaMIRhKL2I2tHS7By31JR9KEvlc1pWFePA3oY1aS/wDrLzTJ1HOsLPzcRSf+tJ+xkMrerHfFm3C+t5/LNGc2qKWGr2aa8lU3O/1GeUU1Vjn1o9upxdCeTW5+hyY6pHzsAAAAAAAAAAAAAAAAAAAAA6LoRjvKYbVbvKi9T/Tvj816jnsQpaFXNbmdrglx0tvovfF5exM0nzH9Hw8pJ2nLiQ6m+X1K7IrSj0tVR4Gzid1q9u5Le9iOXM6ZHAtgAAAAAAAAAAAAAAAAAAAAAAAAAAAAAGYya3Nq/NsPGkz1Sa3MwengAAAAAAAAAAAAAAAAAAAABaNAK9sROHJOnf1xfg2VmJwzpqXUy/8A0/V0a8oda9D0/wAQcVerSp8kIub7ZOy9y95jhcMouf2M/wBQ1c6kafUs+ZUy1OdAAAAAAAAAAAAAAAAB90aUpyjGKvKTUV2t2R5OSjFt8DOnBzkorjsLzm+j+HWGnGjCPl6MITbXnO2+/alIoqF3U6VOT2NnWXeGUNXlGmlpxSfj/GUMvjkAAD3IA8AAAAAAAAAAAAAAAAAAAAAAAAAAAAANzofO2No25ddfyM079Z0GWmDtq7h9/Q+9M53xlT+FQj/Kn8zzD1lRX3Msak3dy8EjRm6VIAAAAAAAAAAAAAAAALHoRgvKYh1JebQjrbd2s9i9136iuxKro09Bb2XeB0FOv0j3RRKyPOdfMKjb4mIbpq+7i/u/cv5iG4ttG2WW9bfc2LG/07+Wb2S2ctxoc9wPkMRUp/VT1o+jLavD1G/a1elpKRUYhb9BcShw4eR95LTwjc/0uc4q0dTUvt3617J9RjcOusuiRnZRtW3rDa6sjbLD5O2kqtdt7FZSbfV5pq6d6tuSLBU8KbyUpfn2MaT5ThMNTjqOo6s7OKck7K+1yVvV/wDD2zua1ae3LJbxilla2tNaOek920jZvlFKlhMNWjra9bU1ru8dtNydlybTO3uZzrypvcs/UgvLKnStKdaOecss+WZoSxKc3+kOT0qFHDzp62tVV5azuvNT2c28r7W4nVnOMtyLnELGnb0ac4Z5vfyPXLtH41sH5WOt5aU9RbeIl5RJtrmSu/UYV7yVOvo8CS1wyFe06RfM3+58Y3D5bClOMKs6leMdkuNqSlzK2ywpzu5TUmskYV6WHwpSjGWc1x4Z+h9ZdkVGFFV8bN04Ss4xj50r7r8u3mQq3c5VOjoLN9ZnQw6lCl0108k9y4kjD4HLMU/J0ZVaNV31dZvjW7bp9mxkcq13Q+Ke1EtO2w65fR0m4y4Z/wCSuY/CTo1J05+dB26nzNdTRZUaiqQUolHcUJUKjpy3ojkhCAAAAAAAAAAAAAAAb7QmlrYyD+xGcvdb5mjiMsqL5FvgkNK7T6k2fWnFLVxbf24Ql7Lr5HmGyzo5dTMsdho3TfWkV83ymAAAAAAAAAAAAAAAABfcnyyrDL5RpJeWxKctr1bKSSW30fiUNetGVznPcjr7O0qQsHGn809vVv8A8Glp6JY2LjKKpqUWpLj7mndM3ZYhQkmnmVkMEu4SUlls27zY6dYJuFKu1aUbU5222vtW3qd16zWwyrlN0/ujcx23bpxrZbVsZSy6OXLNo3goUacsbiFxIX8muWUuSS+C9bKu8qyqSVCnve8v8Nt40abvK25bjRZjjZ16kqlR8aT3ckVyRXUiwo0Y0oKK4FRc3Erio6kuJZdJP8uwP/i/2WVlp/d1Pv6l3iX/AF9H7ehUWXBziLfpl9Gwfor/AG4lPh/1an84nS41/b0f5wPvAV3DKKjjsd5x2fxVFF/E8qwUr1J+HoZW9RwwmTXj+WVTA0lOrSg906kIvsckmWdV5QbXUc9Qip1Yxe5tL8l40nyqFecFLF06Cpx2Rmlfa9st65kvUUtnXdKLag3nxOrxSzjXnFOqo5Lc/wDZq8Lo9Rp1ITWY0LwlGf1VezTt5xtTvJSi49G9v86jQpYXTpzU1Xjsef8ANpG04qU514SpzjO9NJuDUldSfMSYYpKm1JZbSDHZU51lKDT2cCuliUgAAAAAAAAAAAAAABc/8PcL++qtfZpr80v6SnxSptjD7nT/AKeo/PV+y/c9P8QME3ClWS8xuEuyW1P2r3mGF1MpOD4/sSfqCg3CNVcNj+5SC7OUAAAAAAAAAAAAAAAJmUYN169OnySkr9UVtl7kyG5q9HTcjasrfp68afPyN9ppmU1WjSpTlCNKCT1JOO17bO3Mre00cPoRdNzms82W+NXclVVKm8lFcNm3/RXuEa//AH63eS8Tf6Cn2VyRSq6rdt82WrRmu8XhsRhqsnKVm4uTcnaW53fNJe9FXeQVCtGpFbDocMqO7tp29R5vxNJo/kssRWcZJxhSf6zqs/M7XY3bq6VKnmt73FVh+HyuK2jJbI7/AGNjpNTxVeahSw9VUKPFglBpNrZrfJdXaa1lKjSi5SktJ7zexONzXmoU6b0I7tn5NFXyvEU4uVSjUhFWu5RaSu7FhGvTk8oyWZT1LOvTjpTg0i0VsO8XllFUuNOhqrV5W4Jxa7bO5VRmqF3Jz3P9zoJ0neYdBU9rj+2zLkVzB5JiKs1HyU4L60pxcYwXK22WNS7pwjnpZ+RS0MPr1Z6Oi0uLezIsOnKj5HC6jvHbZ861Y2fsNDDc3ObZcY7kqNJR3f4PKh/k1T0//dEzn/fL+cDCn/1EvP8Acq1Gq4SjJb4SjNdqdyzlHSi0+Jz1OWhNS6mW/SbL3jIUsThl5Ti6sorzrXvsXOndNFPZ1tXlKlU2HS4nau8pxuKG3ZtRWaOUYmb1Y0KrfXBxXtews5XNKKzclzKKnZXFSWSg+R44zCypVJU521oOzttV7J/Mkp1FUipLcQ16MqM3CW9HgZkQAAAAAAAAAAAAAMwi20krttJJb227JHknks2ZRi5NJb2dWyLL/wBHoU6fKleXXJ7X/wA6jl7ir0tRzPoFjbavQjT5+ZIx+FjWpzpz82cXF9XX2ojpzcJKUSevRjWpunLicox+EnRqTpzVpQduprkkupnU0qkakFKJ88uKEqFR05b1/MyOSEIAAAAAAAAAAAAAJGCxtSjLXpS1JWcb2TdnvW0jq0oVFoy3E1C4nQlpU3kzzxFaVSUpzetKTbbfKzKEFBKK3GFSpKpJyk82zzMjAkYHG1aMtalNwlZxurPZzWZHVpQqLKaJqFxUoS0qbyZKoZ7ioa7hWcdeTnK0Y7ZPe9xFK0oyyzj4GxDEbmGejLLN5vcev/U2N6RL8MPAx1Gh2fUz/wCWvO2/x7Hji87xVaDhVrOUHa6cYrc7rcuczp2tKnLSjHaRVcQua0XCpPNfY8cvzKth23RqON962OL7U9hlVoQqrKaMLe7rW7zpyyJOP0gxVeLhUq8R7GopRT7bbyKlZUqctJInr4pc1o6MpbPDYRcXmNarGEak3KNPZFWStstyEtOhCm24razXq3VWrFRm80twWY1lSdFTfkm7uNla9779+89dCDn0mW0K7qql0Kfw9RFJTXJmX5pXw9/I1HFPetji/U9hDVt6dX50bVveVrf6csvQnVtKcbJW8rq+jGKftsQRw+gnnlmbU8Zu5LLSy8kjTzm5Ntttva23dvrbNyMUlkitlJyebe0+T0xAAAAAAAAAAAAABb9CMkcmsRUXFX7tPlf2+xchUYjc/wDlH7nSYJh7b6ea2cPcvJTnVBgGi0myFYqGtGyrQXFb3SX2Zf8ANhuWl06Mtu57yqxPDldRzj8y3ePgc4r0J05OM4uMouzT2NHQwnGUc4nFVKc4ScZrJo8zIjAAAAAAAAAAAAAAAAAAAAAAAAAAAAAAAAAAAAAAAAAAAAAAAALNo1oxKs1UrxcaW9ReyVTwj8SsvL5Q+Cnv9C+wzCJVWqlVZR6uv/B0CnBJJJJJKyS2JLkRRt5nXpJLJH0D0AAA1ecZJRxMeOrTXmyjslHxXUyehc1KL+F/Y0rywpXS+NbeviUjMtFMTSu4x8tDnh53rjv9ly5o4jSqbJbGcrdYLcUtsfiXh7GknBxdpJxa5Gmn7zejJPcyqlCUXk1kfJkYgAAAAAAAAAAAAAAAAAAAAAAAAAAAAAAAAAAAAAAA8BlK7strfNvPG0trPVFvcbXAaOYqta1Jwj9qpxF7HtfsNWre0afHPyLC3wq5rbo5Lrewt+S6J0aLUqn66otu1WhHsjy+sqa9/OpsjsR0llg1KhlKfxSLEkaJcmQAAAAAYZ49wMM9PDxrUITXHhGXpRUviexnKL2MjqU4TXxJPzNbPK8Nf6PR7uHgT9PV7T5s0naW/YjyR88FYbo9HuoeA1ir2nzZ5qlv3ceSHBWG6PR7qHgNYq9p82NUt+7jyQ4Kw3R6PdQ8BrFXtPmxqlv3ceSHBWG6PR7qHgNYq9p82NUt+7jyQ4Kw3R6PdQ8BrFXtPmxqlv3ceSHBWG6PR7qHgNYq9p82NUt+7jyQ4Kw3R6PdQ8BrFXtPmxqlv3ceSHBWG6PR7qHgNYq9p82NUt+7jyQ4Kw3R6PdQ8BrFXtPmxqlv3ceSHBWG6PR7qHgNYq9p82NUt+7jyQ4Kw3R6PdQ8BrFXtPmxqlv3ceSHBWG6PR7qHgNYq9p82NUt+7jyQ4Kw3R6PdQ8BrFXtPmxqlv3ceSHBWG6PR7qHgNYq9p82NUt+7jyQ4Kw3R6PdQ8BrFXtPmxqlv3ceSHBWG6PR7qHgNYq9p82NUt+7jyQ4Kw3R6PdQ8BrFXtPmxqlv3ceSHBWG6PR7qHgNYq9p82NUt+7jyQ4Kw3R6PdQ8BrFXtPmxqlv3ceSHBWG6PR7qHgNYq9p82NUt+7jyQ4Kw3R6PdQ8BrFXtPmxqlv3ceSHBWG6PR7qHgNYq9p82NUt+7jyQ4Kw3R6PdQ8BrFXtPmxqlv3ceSHBWG6PR7qHgNYq9p82NUt+7jyQ4Kw3R6PdQ8BrFXtPmxqlv3ceSHBWG6PR7qHgNYq9p82NUt+7jyRmOV4bo9Hu4eA6er2nzYVpb5/TjyRssPhqcFxIQj6MVH4EE5ye9m9So04r4YpfY9jEkPpHp6ZAAAAP/2Q==;" parent="1" vertex="1">
          <mxGeometry x="411.84999999999997" y="150" width="96.3" height="50" as="geometry" />
        </mxCell>
        <mxCell id="czfyNqVmEKDJEXSuVN6o-29" value="Dest. VM" style="text;html=1;align=center;verticalAlign=middle;resizable=0;points=[];autosize=1;" parent="1" vertex="1">
          <mxGeometry x="538.72" y="460" width="60" height="20" as="geometry" />
        </mxCell>
        <mxCell id="czfyNqVmEKDJEXSuVN6o-30" value="Cont. VM" style="text;html=1;align=center;verticalAlign=middle;resizable=0;points=[];autosize=1;" parent="1" vertex="1">
          <mxGeometry x="133.05" y="450" width="70" height="20" as="geometry" />
        </mxCell>
        <mxCell id="qi98abLlbHQPDHmzHjWW-26" value="Vaults(yml)" style="text;html=1;align=center;verticalAlign=middle;resizable=0;points=[];autosize=1;" parent="1" vertex="1">
          <mxGeometry x="138.05" y="470" width="70" height="20" as="geometry" />
        </mxCell>
        <mxCell id="czfyNqVmEKDJEXSuVN6o-31" value="" style="endArrow=classic;html=1;exitX=-0.05;exitY=0.683;exitDx=0;exitDy=0;exitPerimeter=0;" parent="1" source="czfyNqVmEKDJEXSuVN6o-12" edge="1">
          <mxGeometry width="50" height="50" relative="1" as="geometry">
            <mxPoint x="410" y="260" as="sourcePoint" />
            <mxPoint x="210" y="340" as="targetPoint" />
          </mxGeometry>
        </mxCell>
        <mxCell id="czfyNqVmEKDJEXSuVN6o-33" value="" style="curved=1;endArrow=classic;html=1;" parent="1" edge="1">
          <mxGeometry width="50" height="50" relative="1" as="geometry">
            <mxPoint x="240" y="360" as="sourcePoint" />
            <mxPoint x="508" y="360" as="targetPoint" />
            <Array as="points">
              <mxPoint x="380" y="330" />
            </Array>
          </mxGeometry>
        </mxCell>
        <mxCell id="czfyNqVmEKDJEXSuVN6o-34" value="" style="curved=1;endArrow=classic;html=1;" parent="1" edge="1">
          <mxGeometry width="50" height="50" relative="1" as="geometry">
            <mxPoint x="510" y="390" as="sourcePoint" />
            <mxPoint x="235.5299999999999" y="390" as="targetPoint" />
            <Array as="points">
              <mxPoint x="360" y="360" />
            </Array>
          </mxGeometry>
        </mxCell>
        <mxCell id="qi98abLlbHQPDHmzHjWW-31" value="" style="edgeStyle=orthogonalEdgeStyle;rounded=0;orthogonalLoop=1;jettySize=auto;html=1;" parent="1" edge="1">
          <mxGeometry relative="1" as="geometry">
            <mxPoint x="460" y="210" as="sourcePoint" />
            <mxPoint x="460" y="250" as="targetPoint" />
          </mxGeometry>
        </mxCell>
        <mxCell id="czfyNqVmEKDJEXSuVN6o-35" value="&lt;b&gt;Config Execution&lt;/b&gt;" style="text;html=1;align=center;verticalAlign=middle;resizable=0;points=[];autosize=1;" parent="1" vertex="1">
          <mxGeometry x="310" y="320" width="110" height="20" as="geometry" />
        </mxCell>
        <mxCell id="czfyNqVmEKDJEXSuVN6o-36" value="&lt;b&gt;Varibale declaration&lt;/b&gt;" style="text;html=1;align=center;verticalAlign=middle;resizable=0;points=[];autosize=1;" parent="1" vertex="1">
          <mxGeometry x="305" y="352.5" width="130" height="20" as="geometry" />
        </mxCell>
        <mxCell id="qi98abLlbHQPDHmzHjWW-33" value="Cont. VM" style="text;html=1;align=center;verticalAlign=middle;resizable=0;points=[];autosize=1;" parent="1" vertex="1">
          <mxGeometry x="133.05" y="450" width="70" height="20" as="geometry" />
        </mxCell>
        <mxCell id="GHEyF_tTNgWle8hvzClX-1" value="Config.yml" style="text;html=1;align=center;verticalAlign=middle;resizable=0;points=[];autosize=1;" vertex="1" parent="1">
          <mxGeometry x="135" y="540" width="70" height="20" as="geometry" />
        </mxCell>
      </root>
    </mxGraphModel>
  </diagram>
</mxfile>
